<?xml version="1.0" encoding="iso-8859-1"?>
<!-- Generator: Adobe Illustrator 12.0.0, SVG Export Plug-In . SVG Version: 6.00 Build 51448)  -->
<!DOCTYPE svg PUBLIC "-//W3C//DTD SVG 1.1//EN" "http://www.w3.org/Graphics/SVG/1.1/DTD/svg11.dtd" [
	<!ENTITY ns_svg "http://www.w3.org/2000/svg">
	<!ENTITY ns_xlink "http://www.w3.org/1999/xlink">
]>
<svg  version="1.1" id="&#x56FE;&#x5C42;_1" xmlns="&ns_svg;" xmlns:xlink="&ns_xlink;" width="248" height="248"
	 viewBox="0 0 248 248" style="overflow:visible;enable-background:new 0 0 248 248;" xml:space="preserve">
<circle style="fill:#FFBF00;" cx="124" cy="124" r="124"/>
<g>
	<g style="opacity:0.03;">
		<path d="M211.871,166.949c0,40.505-38.398,73.34-85.765,73.34c-47.368,0-85.766-32.835-85.766-73.34
			c0-40.506,42.366-16.739,89.734-16.739C177.44,150.21,211.871,126.443,211.871,166.949z"/>
	</g>
	<g>
		<path style="fill:#FF0000;" d="M211.871,159.949c0,40.505-38.398,73.34-85.765,73.34c-47.368,0-85.766-32.835-85.766-73.34
			c0-40.506,42.366-16.739,89.734-16.739C177.44,143.21,211.871,119.443,211.871,159.949z"/>
	</g>
</g>
<path style="fill:#FFFFFF;" d="M132.021,155.506c29.086,0,56.333,2.855,79.75,7.833c0.06-1.124,0.101-2.252,0.101-3.39
	c0-40.506-34.431-16.739-81.797-16.739c-47.368,0-89.734-23.767-89.734,16.739c0,2.06,0.125,4.092,0.319,6.108
	C66.464,159.413,97.987,155.506,132.021,155.506z"/>
<g>
	<path style="fill:#FF0000;" d="M45.87,64.957c0,23.31,32.226,38.085,32.226,38.085s4.081-29.01,4.081-38.085
		c0-9.075-8.127-18.214-18.153-18.214C53.997,46.743,45.87,55.882,45.87,64.957z"/>
	<path style="fill:#FF0000;" d="M110.451,64.957c0,23.31-32.356,38.085-32.356,38.085S68.083,75.48,71.539,63.14
		c2.667-9.521,10.733-16.397,20.759-16.397C102.324,46.743,110.451,55.882,110.451,64.957z"/>
	<g style="opacity:0.67;">
		<path style="fill:#FF0000;" d="M110.451,64.957c0-9.075-8.127-18.214-18.153-18.214c-5.885,0-11.094,2.372-14.933,6.255
			c-3.316-3.722-8.065-6.255-13.342-6.255c-10.026,0-18.153,9.14-18.153,18.214c0,23.31,32.226,38.085,32.226,38.085
			s-0.002,0.016,0,0C78.844,102.683,110.451,87.745,110.451,64.957z"/>
		<path style="opacity:0.9524;fill:#FF0000;" d="M109.986,64.8c0-8.951-8.016-17.966-17.905-17.966
			c-5.805,0-10.942,2.34-14.729,6.169c-3.271-3.671-7.955-6.169-13.16-6.169c-9.889,0-17.906,9.015-17.906,17.966
			c0,22.992,31.786,37.565,31.786,37.565s-0.002,0.015,0-0.001C78.809,102,109.986,87.277,109.986,64.8z"/>
		<path style="opacity:0.9048;fill:#FF0000;" d="M109.521,64.643c0-8.827-7.905-17.717-17.658-17.717
			c-5.725,0-10.791,2.307-14.525,6.084c-3.226-3.62-7.845-6.084-12.978-6.084c-9.752,0-17.658,8.89-17.658,17.717
			c0,22.674,31.346,37.046,31.346,37.046s-0.002,0.014,0-0.001C78.772,101.318,109.521,86.809,109.521,64.643z"/>
		<path style="opacity:0.8571;fill:#FF0000;" d="M109.056,64.486c0-8.703-7.794-17.469-17.41-17.469
			c-5.644,0-10.64,2.275-14.322,5.999c-3.181-3.569-7.735-5.999-12.795-5.999c-9.615,0-17.41,8.766-17.41,17.469
			c0,22.356,30.906,36.526,30.906,36.526s-0.002,0.013,0-0.002C78.737,100.636,109.056,86.341,109.056,64.486z"/>
		<path style="opacity:0.8095;fill:#FF0000;" d="M108.59,64.33c0-8.579-7.683-17.22-17.162-17.22
			c-5.564,0-10.488,2.243-14.118,5.914c-3.136-3.519-7.625-5.914-12.614-5.914c-9.479,0-17.162,8.641-17.162,17.22
			c0,22.038,30.466,36.006,30.466,36.006s-0.002,0.011,0-0.003C78.701,99.954,108.59,85.874,108.59,64.33z"/>
		<path style="opacity:0.7619;fill:#FF0000;" d="M108.125,64.173c0-8.456-7.573-16.972-16.915-16.972
			c-5.484,0-10.337,2.21-13.914,5.828c-3.09-3.468-7.515-5.828-12.432-5.828c-9.342,0-16.915,8.516-16.915,16.972
			c0,21.719,30.027,35.486,30.027,35.486s-0.002,0.01,0-0.004C78.665,99.271,108.125,85.406,108.125,64.173z"/>
		<path style="opacity:0.7143;fill:#FF0000;" d="M107.66,64.016c0-8.332-7.461-16.723-16.667-16.723
			c-5.403,0-10.185,2.178-13.71,5.743c-3.045-3.417-7.405-5.743-12.25-5.743c-9.205,0-16.667,8.391-16.667,16.723
			c0,21.401,29.587,34.967,29.587,34.967s-0.001,0.009,0-0.005C78.629,98.589,107.66,84.938,107.66,64.016z"/>
		<path style="opacity:0.6667;fill:#FF0000;" d="M107.195,63.859c0-8.208-7.351-16.474-16.419-16.474
			c-5.323,0-10.034,2.146-13.506,5.657c-3-3.366-7.295-5.657-12.067-5.657c-9.068,0-16.419,8.267-16.419,16.474
			c0,21.083,29.147,34.447,29.147,34.447s-0.001,0.008,0-0.006C78.594,97.907,107.195,84.47,107.195,63.859z"/>
		<path style="opacity:0.619;fill:#FF0000;" d="M106.73,63.702c0-8.084-7.24-16.226-16.171-16.226
			c-5.243,0-9.883,2.113-13.303,5.572c-2.955-3.315-7.185-5.572-11.885-5.572c-8.931,0-16.171,8.142-16.171,16.226
			c0,20.765,28.708,33.927,28.708,33.927s-0.001,0.007,0-0.007C78.558,97.225,106.73,84.002,106.73,63.702z"/>
		<path style="opacity:0.5714;fill:#FF0000;" d="M106.265,63.545c0-7.96-7.129-15.977-15.924-15.977
			c-5.162,0-9.731,2.081-13.099,5.487c-2.909-3.265-7.075-5.487-11.703-5.487c-8.794,0-15.924,8.017-15.924,15.977
			c0,20.447,28.268,33.407,28.268,33.407s-0.001,0.006,0.001-0.007C78.522,96.542,106.265,83.534,106.265,63.545z"/>
		<path style="opacity:0.5238;fill:#FF0000;" d="M105.799,63.388c0-7.836-7.018-15.729-15.676-15.729
			c-5.082,0-9.58,2.048-12.895,5.401c-2.864-3.214-6.964-5.401-11.521-5.401c-8.658,0-15.676,7.893-15.676,15.729
			c0,20.129,27.828,32.887,27.828,32.887s-0.001,0.005,0.001-0.008C78.486,95.86,105.799,83.066,105.799,63.388z"/>
		<path style="opacity:0.4762;fill:#FF0000;" d="M105.334,63.231c0-7.712-6.907-15.48-15.428-15.48
			c-5.002,0-9.428,2.016-12.691,5.315c-2.819-3.163-6.855-5.315-11.339-5.315c-8.521,0-15.428,7.768-15.428,15.48
			c0,19.811,27.388,32.368,27.388,32.368s-0.001,0.004,0.001-0.009C78.45,95.178,105.334,82.598,105.334,63.231z"/>
		<path style="opacity:0.4286;fill:#FF0000;" d="M104.869,63.075c0-7.588-6.796-15.231-15.18-15.231
			c-4.922,0-9.277,1.983-12.487,5.23c-2.773-3.112-6.745-5.23-11.157-5.23c-8.384,0-15.18,7.643-15.18,15.231
			c0,19.493,26.948,31.848,26.948,31.848s-0.001,0.003,0.001-0.01C78.415,94.496,104.869,82.13,104.869,63.075z"/>
		<path style="opacity:0.381;fill:#FF0000;" d="M104.404,62.917c0-7.464-6.685-14.982-14.933-14.982
			c-4.841,0-9.125,1.951-12.283,5.145c-2.728-3.061-6.635-5.145-10.975-5.145c-8.247,0-14.933,7.518-14.933,14.982
			c0,19.175,26.508,31.328,26.508,31.328s0,0.002,0.001-0.011C78.379,93.813,104.404,81.662,104.404,62.917z"/>
		<path style="opacity:0.3333;fill:#FF0000;" d="M103.939,62.761c0-7.341-6.574-14.734-14.685-14.734
			c-4.761,0-8.974,1.919-12.08,5.06c-2.683-3.01-6.524-5.06-10.793-5.06c-8.11,0-14.685,7.394-14.685,14.734
			c0,18.856,26.069,30.808,26.069,30.808s0,0.001,0.001-0.012C78.343,93.131,103.939,81.194,103.939,62.761z"/>
		<path style="opacity:0.2857;fill:#FF0000;" d="M103.474,62.604c0-7.217-6.463-14.486-14.437-14.486
			c-4.681,0-8.823,1.887-11.876,4.974c-2.638-2.959-6.414-4.974-10.611-4.974c-7.973,0-14.437,7.269-14.437,14.486
			c0,18.539,25.629,30.288,25.629,30.288s0,0,0.001-0.013C78.307,92.449,103.474,80.727,103.474,62.604z"/>
		<path style="opacity:0.2381;fill:#FF0000;" d="M103.008,62.447c0-7.093-6.352-14.237-14.189-14.237
			c-4.6,0-8.671,1.854-11.672,4.889c-2.592-2.909-6.304-4.889-10.429-4.889c-7.836,0-14.189,7.144-14.189,14.237
			c0,18.221,25.189,29.769,25.189,29.769s0-0.001,0.001-0.013C78.271,91.766,103.008,80.258,103.008,62.447z"/>
		<path style="opacity:0.1905;fill:#FF0000;" d="M102.543,62.29c0-6.969-6.242-13.988-13.942-13.988
			c-4.52,0-8.52,1.822-11.468,4.803c-2.547-2.858-6.194-4.803-10.247-4.803c-7.7,0-13.942,7.019-13.942,13.988
			c0,17.902,24.75,29.249,24.75,29.249s0-0.002,0.001-0.014C78.235,91.084,102.543,79.791,102.543,62.29z"/>
		<path style="opacity:0.1429;fill:#FF0000;" d="M102.078,62.133c0-6.845-6.13-13.74-13.694-13.74c-4.44,0-8.368,1.789-11.264,4.718
			c-2.502-2.807-6.084-4.718-10.065-4.718c-7.563,0-13.694,6.895-13.694,13.74c0,17.584,24.31,28.729,24.31,28.729
			s0-0.003,0.001-0.015C78.2,90.402,102.078,79.323,102.078,62.133z"/>
		<path style="opacity:0.0952;fill:#FF0000;" d="M101.613,61.977c0-6.722-6.02-13.492-13.446-13.492
			c-4.359,0-8.217,1.757-11.061,4.633c-2.457-2.756-5.974-4.633-9.883-4.633c-7.426,0-13.446,6.77-13.446,13.492
			c0,17.266,23.87,28.209,23.87,28.209s0-0.004,0.001-0.016C78.164,89.72,101.613,78.855,101.613,61.977z"/>
		<path style="opacity:0.0476;fill:#FF0000;" d="M101.148,61.819c0-6.597-5.909-13.243-13.199-13.243
			c-4.279,0-8.065,1.725-10.856,4.547c-2.412-2.706-5.864-4.547-9.701-4.547c-7.289,0-13.198,6.646-13.198,13.243
			c0,16.948,23.43,27.689,23.43,27.689s0-0.005,0.002-0.017C78.128,89.037,101.148,78.387,101.148,61.819z"/>
		<path style="opacity:0;fill:#FF0000;" d="M100.683,61.663c0-6.474-5.798-12.994-12.951-12.994c-4.199,0-7.914,1.692-10.653,4.462
			c-2.366-2.655-5.754-4.462-9.519-4.462c-7.152,0-12.951,6.521-12.951,12.994c0,16.63,22.99,27.169,22.99,27.169
			s0-0.006,0.002-0.018C78.092,88.355,100.683,77.919,100.683,61.663z"/>
	</g>
	<g style="opacity:0.54;">
		<path style="fill:#FF0000;" d="M110.451,64.958c0,23.309-32.356,38.084-32.356,38.084S68.083,75.48,71.539,63.139
			c2.667-9.52,10.733-16.396,20.759-16.396C102.324,46.743,110.451,55.882,110.451,64.958z"/>
		<path style="opacity:0.9524;fill:#FF0000;" d="M110.454,65.22c0,23.284-32.358,37.823-32.358,37.823s-10.016-27.312-6.56-39.64
			c2.667-9.51,10.735-16.378,20.762-16.378C102.326,47.024,110.454,56.154,110.454,65.22z"/>
		<path style="opacity:0.9048;fill:#FF0000;" d="M110.456,65.481c0,23.258-32.361,37.561-32.361,37.561s-10.02-27.062-6.563-39.376
			c2.667-9.499,10.737-16.361,20.765-16.361C102.327,47.306,110.456,56.426,110.456,65.481z"/>
		<path style="opacity:0.8571;fill:#FF0000;" d="M110.458,65.743c0,23.233-32.363,37.299-32.363,37.299S68.071,76.231,71.529,63.93
			c2.668-9.489,10.738-16.343,20.769-16.343C102.328,47.587,110.458,56.697,110.458,65.743z"/>
		<path style="opacity:0.8095;fill:#FF0000;" d="M110.461,66.005c0,23.208-32.366,37.038-32.366,37.038s-10.028-26.561-6.569-38.848
			c2.668-9.479,10.74-16.325,20.771-16.325C102.329,47.869,110.461,56.969,110.461,66.005z"/>
		<path style="opacity:0.7619;fill:#FF0000;" d="M110.464,66.267c0,23.183-32.369,36.776-32.369,36.776s-10.032-26.311-6.573-38.584
			C74.191,54.99,82.264,48.15,92.297,48.15C102.331,48.15,110.464,57.24,110.464,66.267z"/>
		<path style="opacity:0.7143;fill:#FF0000;" d="M110.466,66.528c0,23.157-32.371,36.514-32.371,36.514s-10.035-26.06-6.576-38.321
			c2.669-9.458,10.743-16.29,20.777-16.29C102.332,48.432,110.466,57.512,110.466,66.528z"/>
		<path style="opacity:0.6667;fill:#FF0000;" d="M110.469,66.79c0,23.132-32.374,36.252-32.374,36.252s-10.039-25.81-6.58-38.057
			c2.669-9.448,10.745-16.271,20.781-16.271C102.333,48.714,110.469,57.784,110.469,66.79z"/>
		<path style="opacity:0.619;fill:#FF0000;" d="M110.471,67.052c0,23.107-32.376,35.991-32.376,35.991s-10.043-25.56-6.583-37.793
			c2.67-9.437,10.747-16.254,20.784-16.254C102.334,48.995,110.471,58.055,110.471,67.052z"/>
		<path style="opacity:0.5714;fill:#FF0000;" d="M110.474,67.313c0,23.082-32.378,35.729-32.378,35.729s-10.047-25.309-6.586-37.53
			c2.67-9.427,10.748-16.236,20.787-16.236C102.335,49.277,110.474,58.327,110.474,67.313z"/>
		<path style="opacity:0.5238;fill:#FF0000;" d="M110.476,67.575c0,23.056-32.381,35.467-32.381,35.467s-10.051-25.059-6.59-37.266
			c2.671-9.417,10.75-16.218,20.79-16.218C102.337,49.559,110.476,58.599,110.476,67.575z"/>
		<path style="opacity:0.4762;fill:#FF0000;" d="M110.479,67.837c0,23.031-32.384,35.206-32.384,35.206s-10.055-24.809-6.593-37.002
			c2.67-9.406,10.751-16.201,20.793-16.201C102.338,49.84,110.479,58.87,110.479,67.837z"/>
		<path style="opacity:0.4286;fill:#FF0000;" d="M110.481,68.099c0,23.005-32.386,34.944-32.386,34.944s-10.059-24.558-6.596-36.738
			c2.671-9.396,10.753-16.183,20.796-16.183C102.339,50.122,110.481,59.142,110.481,68.099z"/>
		<path style="opacity:0.381;fill:#FF0000;" d="M110.484,68.36c0,22.98-32.389,34.682-32.389,34.682s-10.063-24.308-6.6-36.475
			c2.671-9.386,10.754-16.165,20.799-16.165C102.34,50.403,110.484,59.414,110.484,68.36z"/>
		<path style="opacity:0.3333;fill:#FF0000;" d="M110.486,68.622c0,22.955-32.391,34.42-32.391,34.42s-10.066-24.058-6.603-36.211
			c2.672-9.375,10.756-16.147,20.802-16.147C102.342,50.685,110.486,59.685,110.486,68.622z"/>
		<path style="opacity:0.2857;fill:#FF0000;" d="M110.489,68.884c0,22.93-32.394,34.159-32.394,34.159s-10.07-23.807-6.606-35.947
			c2.672-9.365,10.758-16.129,20.806-16.129C102.343,50.966,110.489,59.957,110.489,68.884z"/>
		<path style="opacity:0.2381;fill:#FF0000;" d="M110.491,69.146c0,22.904-32.396,33.897-32.396,33.897s-10.074-23.557-6.61-35.684
			c2.673-9.354,10.76-16.111,20.809-16.111C102.344,51.248,110.491,60.229,110.491,69.146z"/>
		<path style="opacity:0.1905;fill:#FF0000;" d="M110.494,69.407c0,22.879-32.398,33.635-32.398,33.635s-10.078-23.307-6.613-35.42
			c2.673-9.344,10.761-16.093,20.812-16.093C102.346,51.529,110.494,60.5,110.494,69.407z"/>
		<path style="opacity:0.1429;fill:#FF0000;" d="M110.497,69.669c0,22.854-32.401,33.374-32.401,33.374s-10.082-23.056-6.616-35.156
			c2.673-9.334,10.763-16.076,20.814-16.076C102.347,51.811,110.497,60.771,110.497,69.669z"/>
		<path style="opacity:0.0952;fill:#FF0000;" d="M110.499,69.931c0,22.829-32.404,33.112-32.404,33.112S68.01,80.237,71.476,68.15
			c2.674-9.324,10.764-16.058,20.818-16.058C102.348,52.093,110.499,61.043,110.499,69.931z"/>
		<path style="opacity:0.0476;fill:#FF0000;" d="M110.501,70.192c0,22.803-32.406,32.85-32.406,32.85s-10.089-22.556-6.623-34.628
			c2.674-9.313,10.766-16.04,20.821-16.04C102.349,52.374,110.501,61.315,110.501,70.192z"/>
		<path style="opacity:0;fill:#FF0000;" d="M110.504,70.454c0,22.778-32.409,32.588-32.409,32.588s-10.093-22.305-6.626-34.365
			c2.675-9.303,10.768-16.022,20.824-16.022C102.351,52.656,110.504,61.586,110.504,70.454z"/>
	</g>
</g>
<g>
	<path style="fill:#FF0000;" d="M134.869,64.957c0,23.31,32.227,38.085,32.227,38.085s4.08-29.01,4.08-38.085
		c0-9.075-8.127-18.214-18.152-18.214C142.997,46.743,134.869,55.882,134.869,64.957z"/>
	<path style="fill:#FF0000;" d="M199.451,64.957c0,23.31-32.355,38.085-32.355,38.085s-10.013-27.562-6.557-39.903
		c2.666-9.521,10.733-16.397,20.759-16.397C191.324,46.743,199.451,55.882,199.451,64.957z"/>
	<g style="opacity:0.67;">
		<path style="fill:#FF0000;" d="M199.451,64.957c0-9.075-8.127-18.214-18.153-18.214c-5.886,0-11.094,2.372-14.933,6.255
			c-3.316-3.722-8.066-6.255-13.342-6.255c-10.026,0-18.154,9.14-18.154,18.214c0,23.31,32.227,38.085,32.227,38.085
			s-0.003,0.016,0,0C167.844,102.683,199.451,87.745,199.451,64.957z"/>
		<path style="opacity:0.9524;fill:#FF0000;" d="M198.986,64.8c0-8.951-8.017-17.966-17.906-17.966
			c-5.805,0-10.942,2.34-14.729,6.169c-3.271-3.671-7.956-6.169-13.16-6.169c-9.889,0-17.906,9.015-17.906,17.966
			c0,22.992,31.787,37.565,31.787,37.565s-0.003,0.015,0-0.001C167.808,102,198.986,87.277,198.986,64.8z"/>
		<path style="opacity:0.9048;fill:#FF0000;" d="M198.521,64.643c0-8.827-7.905-17.717-17.657-17.717
			c-5.726,0-10.791,2.307-14.525,6.084c-3.226-3.62-7.846-6.084-12.978-6.084c-9.753,0-17.659,8.89-17.659,17.717
			c0,22.674,31.348,37.046,31.348,37.046s-0.003,0.014,0-0.001C167.772,101.318,198.521,86.809,198.521,64.643z"/>
		<path style="opacity:0.8571;fill:#FF0000;" d="M198.056,64.486c0-8.703-7.794-17.469-17.41-17.469
			c-5.645,0-10.64,2.275-14.321,5.999c-3.181-3.569-7.736-5.999-12.796-5.999c-9.615,0-17.41,8.766-17.41,17.469
			c0,22.356,30.906,36.526,30.906,36.526s-0.002,0.013,0.001-0.002C167.736,100.636,198.056,86.341,198.056,64.486z"/>
		<path style="opacity:0.8095;fill:#FF0000;" d="M197.591,64.33c0-8.579-7.684-17.22-17.162-17.22
			c-5.565,0-10.488,2.243-14.118,5.914c-3.135-3.519-7.626-5.914-12.613-5.914c-9.479,0-17.163,8.641-17.163,17.22
			c0,22.038,30.467,36.006,30.467,36.006s-0.002,0.011,0.001-0.003C167.7,99.954,197.591,85.874,197.591,64.33z"/>
		<path style="opacity:0.7619;fill:#FF0000;" d="M197.125,64.173c0-8.456-7.572-16.972-16.914-16.972
			c-5.484,0-10.337,2.21-13.914,5.828c-3.09-3.468-7.516-5.828-12.432-5.828c-9.342,0-16.915,8.516-16.915,16.972
			c0,21.719,30.027,35.486,30.027,35.486s-0.002,0.01,0.001-0.004C167.665,99.271,197.125,85.406,197.125,64.173z"/>
		<path style="opacity:0.7143;fill:#FF0000;" d="M196.66,64.016c0-8.332-7.462-16.723-16.667-16.723
			c-5.403,0-10.185,2.178-13.71,5.743c-3.045-3.417-7.405-5.743-12.249-5.743c-9.205,0-16.668,8.391-16.668,16.723
			c0,21.401,29.588,34.967,29.588,34.967s-0.002,0.009,0-0.005C167.629,98.589,196.66,84.938,196.66,64.016z"/>
		<path style="opacity:0.6667;fill:#FF0000;" d="M196.195,63.859c0-8.208-7.351-16.474-16.419-16.474
			c-5.324,0-10.034,2.146-13.507,5.657c-2.999-3.366-7.295-5.657-12.067-5.657c-9.068,0-16.42,8.267-16.42,16.474
			c0,21.083,29.148,34.447,29.148,34.447s-0.002,0.008,0-0.006C167.593,97.907,196.195,84.47,196.195,63.859z"/>
		<path style="opacity:0.619;fill:#FF0000;" d="M195.729,63.702c0-8.084-7.239-16.226-16.171-16.226
			c-5.243,0-9.883,2.113-13.303,5.572c-2.954-3.315-7.186-5.572-11.885-5.572c-8.932,0-16.172,8.142-16.172,16.226
			c0,20.765,28.707,33.927,28.707,33.927s-0.001,0.007,0.001-0.007C167.558,97.225,195.729,84.002,195.729,63.702z"/>
		<path style="opacity:0.5714;fill:#FF0000;" d="M195.265,63.545c0-7.96-7.129-15.977-15.924-15.977
			c-5.162,0-9.73,2.081-13.099,5.487c-2.909-3.265-7.075-5.487-11.703-5.487c-8.794,0-15.924,8.017-15.924,15.977
			c0,20.447,28.268,33.407,28.268,33.407s-0.001,0.006,0.001-0.007C167.521,96.542,195.265,83.534,195.265,63.545z"/>
		<path style="opacity:0.5238;fill:#FF0000;" d="M194.8,63.388c0-7.836-7.019-15.729-15.676-15.729
			c-5.083,0-9.58,2.048-12.896,5.401c-2.863-3.214-6.965-5.401-11.521-5.401c-8.658,0-15.677,7.893-15.677,15.729
			c0,20.129,27.828,32.887,27.828,32.887s-0.001,0.005,0.001-0.008C167.485,95.86,194.8,83.066,194.8,63.388z"/>
		<path style="opacity:0.4762;fill:#FF0000;" d="M194.334,63.231c0-7.712-6.906-15.48-15.428-15.48
			c-5.002,0-9.428,2.016-12.69,5.315c-2.819-3.163-6.855-5.315-11.34-5.315c-8.521,0-15.429,7.768-15.429,15.48
			c0,19.811,27.389,32.368,27.389,32.368s-0.001,0.004,0.001-0.009C167.45,95.178,194.334,82.598,194.334,63.231z"/>
		<path style="opacity:0.4286;fill:#FF0000;" d="M193.869,63.075c0-7.588-6.796-15.231-15.18-15.231
			c-4.923,0-9.277,1.983-12.487,5.23c-2.773-3.112-6.745-5.23-11.157-5.23c-8.385,0-15.182,7.643-15.182,15.231
			c0,19.493,26.949,31.848,26.949,31.848s-0.001,0.003,0.001-0.01C167.414,94.496,193.869,82.13,193.869,63.075z"/>
		<path style="opacity:0.381;fill:#FF0000;" d="M193.404,62.917c0-7.464-6.686-14.982-14.933-14.982
			c-4.842,0-9.125,1.951-12.283,5.145c-2.729-3.061-6.635-5.145-10.976-5.145c-8.247,0-14.934,7.518-14.934,14.982
			c0,19.175,26.51,31.328,26.51,31.328s-0.001,0.002,0.001-0.011C167.378,93.813,193.404,81.662,193.404,62.917z"/>
		<path style="opacity:0.3333;fill:#FF0000;" d="M192.938,62.761c0-7.341-6.574-14.734-14.685-14.734
			c-4.761,0-8.974,1.919-12.079,5.06c-2.684-3.01-6.525-5.06-10.793-5.06c-8.11,0-14.686,7.394-14.686,14.734
			c0,18.856,26.068,30.808,26.068,30.808s0,0.001,0.002-0.012C167.343,93.131,192.938,81.194,192.938,62.761z"/>
		<path style="opacity:0.2857;fill:#FF0000;" d="M192.474,62.604c0-7.217-6.463-14.486-14.437-14.486
			c-4.682,0-8.823,1.887-11.876,4.974c-2.638-2.959-6.415-4.974-10.611-4.974c-7.974,0-14.438,7.269-14.438,14.486
			c0,18.539,25.629,30.288,25.629,30.288s0,0,0.002-0.013C167.307,92.449,192.474,80.727,192.474,62.604z"/>
		<path style="opacity:0.2381;fill:#FF0000;" d="M192.009,62.447c0-7.093-6.353-14.237-14.189-14.237
			c-4.601,0-8.671,1.854-11.672,4.889c-2.593-2.909-6.305-4.889-10.429-4.889c-7.837,0-14.19,7.144-14.19,14.237
			c0,18.221,25.189,29.769,25.189,29.769s0-0.001,0.001-0.013C167.271,91.766,192.009,80.258,192.009,62.447z"/>
		<path style="opacity:0.1905;fill:#FF0000;" d="M191.543,62.29c0-6.969-6.241-13.988-13.941-13.988
			c-4.52,0-8.52,1.822-11.468,4.803c-2.548-2.858-6.194-4.803-10.247-4.803c-7.699,0-13.942,7.019-13.942,13.988
			c0,17.902,24.75,29.249,24.75,29.249s0-0.002,0.001-0.014C167.235,91.084,191.543,79.791,191.543,62.29z"/>
		<path style="opacity:0.1429;fill:#FF0000;" d="M191.078,62.133c0-6.845-6.131-13.74-13.693-13.74
			c-4.44,0-8.368,1.789-11.265,4.718c-2.502-2.807-6.084-4.718-10.064-4.718c-7.563,0-13.695,6.895-13.695,13.74
			c0,17.584,24.311,28.729,24.311,28.729s0-0.003,0.001-0.015C167.199,90.402,191.078,79.323,191.078,62.133z"/>
		<path style="opacity:0.0952;fill:#FF0000;" d="M190.613,61.977c0-6.722-6.02-13.492-13.446-13.492
			c-4.359,0-8.217,1.757-11.061,4.633c-2.457-2.756-5.975-4.633-9.883-4.633c-7.426,0-13.446,6.77-13.446,13.492
			c0,17.266,23.869,28.209,23.869,28.209s0.001-0.004,0.002-0.016C167.163,89.72,190.613,78.855,190.613,61.977z"/>
		<path style="opacity:0.0476;fill:#FF0000;" d="M190.147,61.819c0-6.597-5.908-13.243-13.197-13.243
			c-4.28,0-8.065,1.725-10.857,4.547c-2.411-2.706-5.864-4.547-9.7-4.547c-7.29,0-13.199,6.646-13.199,13.243
			c0,16.948,23.43,27.689,23.43,27.689s0.001-0.005,0.002-0.017C167.128,89.037,190.147,78.387,190.147,61.819z"/>
		<path style="opacity:0;fill:#FF0000;" d="M189.683,61.663c0-6.474-5.798-12.994-12.95-12.994c-4.199,0-7.914,1.692-10.653,4.462
			c-2.366-2.655-5.754-4.462-9.519-4.462c-7.152,0-12.951,6.521-12.951,12.994c0,16.63,22.99,27.169,22.99,27.169
			s0.001-0.006,0.002-0.018C167.092,88.355,189.683,77.919,189.683,61.663z"/>
	</g>
	<g style="opacity:0.54;">
		<path style="fill:#FF0000;" d="M199.451,64.958c0,23.309-32.355,38.084-32.355,38.084s-10.013-27.562-6.557-39.903
			c2.666-9.52,10.733-16.396,20.759-16.396C191.324,46.743,199.451,55.882,199.451,64.958z"/>
		<path style="opacity:0.9524;fill:#FF0000;" d="M199.454,65.22c0,23.284-32.358,37.823-32.358,37.823s-10.017-27.312-6.56-39.64
			c2.666-9.51,10.734-16.378,20.762-16.378S199.454,56.154,199.454,65.22z"/>
		<path style="opacity:0.9048;fill:#FF0000;" d="M199.456,65.481c0,23.258-32.36,37.561-32.36,37.561s-10.021-27.062-6.563-39.376
			c2.667-9.499,10.736-16.361,20.766-16.361S199.456,56.426,199.456,65.481z"/>
		<path style="opacity:0.8571;fill:#FF0000;" d="M199.459,65.743c0,23.233-32.363,37.299-32.363,37.299s-10.024-26.811-6.566-39.112
			c2.667-9.489,10.738-16.343,20.768-16.343C191.328,47.587,199.459,56.697,199.459,65.743z"/>
		<path style="opacity:0.8095;fill:#FF0000;" d="M199.461,66.005c0,23.208-32.365,37.038-32.365,37.038s-10.028-26.561-6.57-38.848
			c2.668-9.479,10.74-16.325,20.771-16.325C191.329,47.869,199.461,56.969,199.461,66.005z"/>
		<path style="opacity:0.7619;fill:#FF0000;" d="M199.464,66.267c0,23.183-32.368,36.776-32.368,36.776s-10.032-26.311-6.573-38.584
			c2.668-9.468,10.741-16.308,20.774-16.308S199.464,57.24,199.464,66.267z"/>
		<path style="opacity:0.7143;fill:#FF0000;" d="M199.466,66.528c0,23.157-32.37,36.514-32.37,36.514s-10.036-26.06-6.577-38.321
			c2.669-9.458,10.743-16.29,20.778-16.29S199.466,57.512,199.466,66.528z"/>
		<path style="opacity:0.6667;fill:#FF0000;" d="M199.469,66.79c0,23.132-32.373,36.252-32.373,36.252s-10.04-25.81-6.58-38.057
			c2.669-9.448,10.745-16.271,20.78-16.271C191.333,48.714,199.469,57.784,199.469,66.79z"/>
		<path style="opacity:0.619;fill:#FF0000;" d="M199.472,67.052c0,23.107-32.376,35.991-32.376,35.991s-10.044-25.56-6.583-37.793
			c2.669-9.437,10.746-16.254,20.783-16.254C191.334,48.995,199.472,58.055,199.472,67.052z"/>
		<path style="opacity:0.5714;fill:#FF0000;" d="M199.474,67.313c0,23.082-32.378,35.729-32.378,35.729s-10.048-25.309-6.587-37.53
			c2.67-9.427,10.748-16.236,20.787-16.236C191.336,49.277,199.474,58.327,199.474,67.313z"/>
		<path style="opacity:0.5238;fill:#FF0000;" d="M199.477,67.575c0,23.056-32.381,35.467-32.381,35.467s-10.052-25.059-6.59-37.266
			c2.67-9.417,10.749-16.218,20.79-16.218S199.477,58.599,199.477,67.575z"/>
		<path style="opacity:0.4762;fill:#FF0000;" d="M199.479,67.837c0,23.031-32.383,35.206-32.383,35.206s-10.055-24.809-6.594-37.002
			c2.671-9.406,10.752-16.201,20.793-16.201C191.338,49.84,199.479,58.87,199.479,67.837z"/>
		<path style="opacity:0.4286;fill:#FF0000;" d="M199.481,68.099c0,23.005-32.386,34.944-32.386,34.944s-10.059-24.558-6.597-36.738
			c2.671-9.396,10.753-16.183,20.796-16.183C191.339,50.122,199.481,59.142,199.481,68.099z"/>
		<path style="opacity:0.381;fill:#FF0000;" d="M199.483,68.36c0,22.98-32.388,34.682-32.388,34.682s-10.063-24.308-6.601-36.475
			c2.672-9.386,10.755-16.165,20.8-16.165C191.341,50.403,199.483,59.414,199.483,68.36z"/>
		<path style="opacity:0.3333;fill:#FF0000;" d="M199.486,68.622c0,22.955-32.391,34.42-32.391,34.42s-10.066-24.058-6.604-36.211
			c2.672-9.375,10.756-16.147,20.803-16.147S199.486,59.685,199.486,68.622z"/>
		<path style="opacity:0.2857;fill:#FF0000;" d="M199.489,68.884c0,22.93-32.394,34.159-32.394,34.159s-10.07-23.807-6.606-35.947
			c2.672-9.365,10.758-16.129,20.805-16.129C191.343,50.966,199.489,59.957,199.489,68.884z"/>
		<path style="opacity:0.2381;fill:#FF0000;" d="M199.491,69.146c0,22.904-32.396,33.897-32.396,33.897s-10.074-23.557-6.61-35.684
			c2.673-9.354,10.76-16.111,20.809-16.111C191.345,51.248,199.491,60.229,199.491,69.146z"/>
		<path style="opacity:0.1905;fill:#FF0000;" d="M199.494,69.407c0,22.879-32.398,33.635-32.398,33.635s-10.078-23.307-6.613-35.42
			c2.673-9.344,10.761-16.093,20.812-16.093C191.346,51.529,199.494,60.5,199.494,69.407z"/>
		<path style="opacity:0.1429;fill:#FF0000;" d="M199.496,69.669c0,22.854-32.4,33.374-32.4,33.374s-10.082-23.056-6.617-35.156
			c2.674-9.334,10.763-16.076,20.815-16.076S199.496,60.771,199.496,69.669z"/>
		<path style="opacity:0.0952;fill:#FF0000;" d="M199.499,69.931c0,22.829-32.403,33.112-32.403,33.112s-10.086-22.806-6.62-34.892
			c2.674-9.324,10.765-16.058,20.817-16.058C191.348,52.093,199.499,61.043,199.499,69.931z"/>
		<path style="opacity:0.0476;fill:#FF0000;" d="M199.501,70.192c0,22.803-32.405,32.85-32.405,32.85s-10.09-22.556-6.624-34.628
			c2.675-9.313,10.767-16.04,20.821-16.04C191.35,52.374,199.501,61.315,199.501,70.192z"/>
		<path style="opacity:0;fill:#FF0000;" d="M199.504,70.454c0,22.778-32.408,32.588-32.408,32.588s-10.094-22.305-6.627-34.365
			c2.675-9.303,10.768-16.022,20.824-16.022C191.351,52.656,199.504,61.586,199.504,70.454z"/>
	</g>
</g>
<path style="opacity:0.19;fill:#BF0000;" d="M123.274,212.668c-32.257,0-60.769-11.766-78.019-29.769
	c11.268,29.26,43.468,50.39,81.458,50.39c43.958,0,80.17-28.285,85.157-64.73C197.851,194.401,163.469,212.668,123.274,212.668z"/>
<path style="fill:#00C0ED;" d="M165.939,188.054c0,0,13.482,14.225,7.333,28c-16.666,37.333,34,44.001,26-1.333
	C199.272,214.721,196.606,192.721,165.939,188.054z"/>
<ellipse transform="matrix(0.9713 0.2379 -0.2379 0.9713 60.4018 -38.6435)" style="fill:#FFFFFF;" cx="190.32" cy="230.953" rx="4.048" ry="7.567"/>
<ellipse transform="matrix(0.9787 0.2051 -0.2051 0.9787 43.39 -16.646)" style="fill:#FFFFFF;" cx="102" cy="201.002" rx="7" ry="3.666"/>
</svg>
