<?xml version="1.0" encoding="iso-8859-1"?>
<!-- Generator: Adobe Illustrator 12.0.0, SVG Export Plug-In . SVG Version: 6.00 Build 51448)  -->
<!DOCTYPE svg PUBLIC "-//W3C//DTD SVG 1.1//EN" "http://www.w3.org/Graphics/SVG/1.1/DTD/svg11.dtd" [
	<!ENTITY ns_svg "http://www.w3.org/2000/svg">
	<!ENTITY ns_xlink "http://www.w3.org/1999/xlink">
]>
<svg  version="1.1" id="&#x56FE;&#x5C42;_1" xmlns="&ns_svg;" xmlns:xlink="&ns_xlink;" width="248" height="248"
	 viewBox="0 0 248 248" style="overflow:visible;enable-background:new 0 0 248 248;" xml:space="preserve">
<circle style="fill:#FFBF00;" cx="124" cy="124" r="124"/>
<g>
	<g style="opacity:0.03;">
		<ellipse cx="86.457" cy="90.79" rx="50.864" ry="50.546"/>
	</g>
	<g>
		<ellipse style="fill:#FFFFFF;" cx="86.457" cy="83.79" rx="50.864" ry="50.546"/>
	</g>
</g>
<g>
	<g style="opacity:0.03;">
		<ellipse cx="167" cy="89.141" rx="45.28" ry="44.996"/>
	</g>
	<g>
		<ellipse style="fill:#FFFFFF;" cx="167" cy="82.141" rx="45.28" ry="44.996"/>
	</g>
</g>
<circle cx="81.158" cy="80.177" r="9.687"/>
<circle cx="139.333" cy="75.123" r="8.367"/>
<g>
	<g style="opacity:0.03;">
		<path d="M186.812,109.161c0,0,16.181,17.071,8.801,33.604c-20.002,44.805,40.805,52.807,31.204-1.601
			C226.816,141.165,223.616,114.762,186.812,109.161z"/>
		<ellipse transform="matrix(0.9713 0.2379 -0.2379 0.9713 44.4209 -46.791)" cx="216.072" cy="160.647" rx="4.858" ry="9.081"/>
	</g>
	<g>
		<g>
			<path style="fill:#00B5E0;" d="M186.812,102.161c0,0,16.181,17.072,8.801,33.604c-20.002,44.805,40.805,52.807,31.204-1.601
				C226.816,134.165,223.616,107.762,186.812,102.161z"/>
			
				<ellipse transform="matrix(0.9713 0.2379 -0.2379 0.9713 42.7557 -46.9919)" style="fill:#FFFFFF;" cx="216.072" cy="153.647" rx="4.858" ry="9.081"/>
		</g>
	</g>
</g>
</svg>
