<?xml version="1.0" encoding="iso-8859-1"?>
<!-- Generator: Adobe Illustrator 12.0.0, SVG Export Plug-In . SVG Version: 6.00 Build 51448)  -->
<!DOCTYPE svg PUBLIC "-//W3C//DTD SVG 1.1//EN" "http://www.w3.org/Graphics/SVG/1.1/DTD/svg11.dtd" [
	<!ENTITY ns_svg "http://www.w3.org/2000/svg">
	<!ENTITY ns_xlink "http://www.w3.org/1999/xlink">
]>
<svg  version="1.1" id="&#x56FE;&#x5C42;_1" xmlns="&ns_svg;" xmlns:xlink="&ns_xlink;" width="251.993" height="226.217"
	 viewBox="0 0 251.993 226.217" style="overflow:visible;enable-background:new 0 0 251.993 226.217;" xml:space="preserve">
<circle style="fill:#FFBF00;" cx="127.572" cy="113.109" r="113.109"/>
<g>
	<path style="fill:none;stroke:#000000;stroke-width:13;stroke-linecap:round;stroke-linejoin:round;" d="M192.422,44.051
		c0,0-32.614-0.259-43.664,21.913"/>
	<path style="fill:none;stroke:#000000;stroke-width:13;stroke-linecap:round;stroke-linejoin:round;" d="M148.758,65.964
		c0,0,23.054-4.189,33.088,12.687"/>
</g>
<g>
	<path style="fill:none;stroke:#000000;stroke-width:13;stroke-linecap:round;stroke-linejoin:round;" d="M66.712,44.051
		c0,0,32.615-0.259,43.665,21.913"/>
	<path style="fill:none;stroke:#000000;stroke-width:13;stroke-linecap:round;stroke-linejoin:round;" d="M110.376,65.964
		c0,0-24.765-1.908-33.43,12.687"/>
</g>
<path style="fill:#BF0000;" d="M172,168.336c0,26.686-19.069,41.32-42.592,41.32c-23.523,0-42.592-14.635-42.592-41.32
	c0-26.688,19.069-48.321,42.592-48.321C152.931,120.015,172,141.649,172,168.336z"/>
<g>
	<path style="fill:#00B5E0;" d="M207.009,63.958c0,0,16.629,6.563,16.855,20.321c0.609,37.29,45.067,23.272,20.98-11.123
		C244.845,73.157,234.16,55.996,207.009,63.958z"/>
	
		<ellipse transform="matrix(0.9808 -0.1948 0.1948 0.9808 -12.8685 49.1959)" style="fill:#FFFFFF;" cx="243.701" cy="90.027" rx="3.692" ry="6.903"/>
</g>
<g>
	<path style="fill:#00B5E0;" d="M192.913,99.688c0,0,7.916,8.861,3.943,17.1c-10.77,22.326,19.816,27.271,15.779-0.342
		C212.636,116.447,211.413,103.065,192.913,99.688z"/>
	
		<ellipse transform="matrix(0.9638 0.2666 -0.2666 0.9638 41.1165 -50.6034)" style="fill:#FFFFFF;" cx="206.921" cy="126.123" rx="2.454" ry="4.588"/>
</g>
<g>
	<path style="fill:#00B5E0;" d="M44.984,55.114c0,0-16.629,6.563-16.855,20.321c-0.609,37.289-45.067,23.272-20.98-11.123
		C7.148,64.312,17.833,47.151,44.984,55.114z"/>
	
		<ellipse transform="matrix(-0.9808 -0.1948 0.1948 -0.9808 0.6123 162.4254)" style="fill:#FFFFFF;" cx="8.292" cy="81.183" rx="3.692" ry="6.903"/>
</g>
<g>
	<path style="fill:#00B5E0;" d="M64.012,95.921c0,0-7.916,8.861-3.943,17.1c10.77,22.326-19.816,27.271-15.779-0.342
		C44.29,112.679,45.512,99.298,64.012,95.921z"/>
	
		<ellipse transform="matrix(-0.9638 0.2666 -0.2666 -0.9638 130.8207 226.9489)" style="fill:#FFFFFF;" cx="50.004" cy="122.355" rx="2.454" ry="4.588"/>
</g>
<path style="fill:#FFFFFF;" d="M129.318,141.525c13.363,0,26.058,1.392,37.502,3.891c-7.196-15.123-21.291-25.4-37.502-25.4
	c-16.212,0-30.306,10.277-37.503,25.4C103.261,142.917,115.954,141.525,129.318,141.525z"/>
</svg>
