<?xml version="1.0" encoding="iso-8859-1"?>
<!-- Generator: Adobe Illustrator 12.0.0, SVG Export Plug-In . SVG Version: 6.00 Build 51448)  -->
<!DOCTYPE svg PUBLIC "-//W3C//DTD SVG 1.1//EN" "http://www.w3.org/Graphics/SVG/1.1/DTD/svg11.dtd" [
	<!ENTITY ns_svg "http://www.w3.org/2000/svg">
	<!ENTITY ns_xlink "http://www.w3.org/1999/xlink">
]>
<svg  version="1.1" id="&#x56FE;&#x5C42;_1" xmlns="&ns_svg;" xmlns:xlink="&ns_xlink;" width="233.896" height="248.75"
	 viewBox="0 0 233.896 248.75" style="overflow:visible;enable-background:new 0 0 233.896 248.75;" xml:space="preserve">
<circle style="fill:#FFBF00;" cx="116.948" cy="116.948" r="116.948"/>
<g>
	<g>
		<path style="fill:#FFFFFF;" d="M112.657,210.709c0,17.343,14.109,31.452,31.452,31.452s31.452-14.109,31.452-31.452
			c0-17.342-14.109-31.451-31.452-31.451S112.657,193.367,112.657,210.709z"/>
		<path style="fill:#FFBF00;" d="M144.108,173.758c-20.407,0-36.953,16.543-36.953,36.952c0,20.407,16.545,36.952,36.953,36.952
			c20.408,0,36.951-16.545,36.951-36.952C181.06,190.301,164.517,173.758,144.108,173.758L144.108,173.758z M144.108,236.662
			c-6.933,0-13.449-2.7-18.351-7.603c-4.901-4.9-7.602-11.418-7.602-18.35s2.7-13.449,7.601-18.351
			c4.902-4.902,11.419-7.602,18.352-7.602s13.449,2.699,18.351,7.602c4.902,4.9,7.601,11.418,7.601,18.351
			c0,6.932-2.698,13.449-7.601,18.351S151.04,236.662,144.108,236.662L144.108,236.662z"/>
	</g>
	<g style="opacity:0.15;">
		<path style="fill:#B2B2B2;" d="M157.761,188.35c0.306,1.563,0.469,3.177,0.469,4.83c0,13.708-10.993,24.82-24.555,24.82
			c-6.679,0-12.731-2.7-17.157-7.071c-0.002,0.06-0.006,0.118-0.006,0.178c0,14.86,12.046,26.907,26.906,26.907
			c14.858,0,26.903-12.047,26.903-26.907C170.321,201.523,165.308,193.115,157.761,188.35z"/>
	</g>
</g>
<g>
	<g style="opacity:0.03;">
		<ellipse cx="76.376" cy="86.619" rx="48.039" ry="47.738"/>
	</g>
	<g>
		<ellipse style="fill:#FFFFFF;" cx="76.376" cy="79.619" rx="48.039" ry="47.738"/>
	</g>
</g>
<circle cx="90.856" cy="75.009" r="13.809"/>
<g>
	<g style="opacity:0.03;">
		<ellipse cx="152.881" cy="85.354" rx="48.039" ry="47.738"/>
	</g>
	<g>
		<ellipse style="fill:#FFFFFF;" cx="152.881" cy="78.354" rx="48.039" ry="47.738"/>
	</g>
</g>
<circle cx="142.55" cy="74.364" r="14.752"/>
<circle style="fill:#FFFFFF;" cx="153.238" cy="85.052" r="10.688"/>
<circle style="fill:#FFFFFF;" cx="81.428" cy="84.438" r="9.428"/>
<g>
	<g>
		<path style="fill:#FFFFFF;" d="M71.987,215.172c0,15.481,12.595,28.077,28.077,28.077c15.481,0,28.076-12.596,28.076-28.077
			s-12.595-28.076-28.076-28.076C84.583,187.096,71.987,199.69,71.987,215.172z"/>
		<path style="fill:#FFBF00;" d="M100.063,181.596c-18.543,0-33.576,15.032-33.576,33.576s15.033,33.578,33.576,33.578
			c18.544,0,33.576-15.034,33.576-33.578S118.607,181.596,100.063,181.596L100.063,181.596z M100.063,237.75
			c-6.03,0-11.699-2.349-15.963-6.613c-4.265-4.265-6.613-9.934-6.613-15.965c0-6.03,2.348-11.7,6.612-15.964
			c4.265-4.264,9.934-6.612,15.964-6.612c6.031,0,11.7,2.349,15.964,6.612c4.264,4.264,6.612,9.933,6.612,15.964
			s-2.348,11.701-6.612,15.965C111.762,235.402,106.093,237.75,100.063,237.75L100.063,237.75z"/>
	</g>
	<g style="opacity:0.15;">
		<path style="fill:#B2B2B2;" d="M113.129,193.867c0.277,1.419,0.426,2.886,0.426,4.389c0,12.456-9.989,22.553-22.313,22.553
			c-6.069,0-11.569-2.453-15.591-6.425c-0.001,0.054-0.004,0.107-0.004,0.161c0,13.503,10.946,24.449,24.449,24.449
			c13.502,0,24.447-10.946,24.447-24.449C124.543,205.837,119.986,198.197,113.129,193.867z"/>
	</g>
</g>
<g>
	
		<line style="fill:none;stroke:#FF0000;stroke-width:5;stroke-linecap:round;stroke-linejoin:round;" x1="38.458" y1="151.708" x2="30.127" y2="166.493"/>
	
		<line style="fill:none;stroke:#FF0000;stroke-width:5;stroke-linecap:round;stroke-linejoin:round;" x1="51.538" y1="146.498" x2="42.167" y2="163.132"/>
	
		<line style="fill:none;stroke:#FF0000;stroke-width:5;stroke-linecap:round;stroke-linejoin:round;" x1="65.873" y1="138.343" x2="53.725" y2="159.904"/>
</g>
<g>
	
		<line style="fill:none;stroke:#FF0000;stroke-width:5;stroke-linecap:round;stroke-linejoin:round;" x1="183.215" y1="134.86" x2="174.733" y2="149.559"/>
	
		<line style="fill:none;stroke:#FF0000;stroke-width:5;stroke-linecap:round;stroke-linejoin:round;" x1="196.349" y1="129.785" x2="186.807" y2="146.321"/>
	
		<line style="fill:none;stroke:#FF0000;stroke-width:5;stroke-linecap:round;stroke-linejoin:round;" x1="210.767" y1="121.777" x2="198.397" y2="143.213"/>
</g>
</svg>
