<?xml version="1.0" encoding="iso-8859-1"?>
<!-- Generator: Adobe Illustrator 12.0.0, SVG Export Plug-In . SVG Version: 6.00 Build 51448)  -->
<!DOCTYPE svg PUBLIC "-//W3C//DTD SVG 1.1//EN" "http://www.w3.org/Graphics/SVG/1.1/DTD/svg11.dtd" [
	<!ENTITY ns_svg "http://www.w3.org/2000/svg">
	<!ENTITY ns_xlink "http://www.w3.org/1999/xlink">
]>
<svg  version="1.1" id="&#x56FE;&#x5C42;_1" xmlns="&ns_svg;" xmlns:xlink="&ns_xlink;" width="248" height="248"
	 viewBox="0 0 248 248" style="overflow:visible;enable-background:new 0 0 248 248;" xml:space="preserve">
<circle style="fill:#FFBF00;" cx="124" cy="124" r="124"/>
<g>
	<g style="opacity:0.03;">
		<path d="M221.334,156.407c0,58.573-60.713,84.928-95.666,84.928C80.777,241.335,30,214.98,30,156.407
			c0-58.577,59.24-11.307,95.667-11.307C160.621,145.101,221.334,97.831,221.334,156.407z"/>
	</g>
	<g>
		<path style="fill:#FFFFFF;" d="M221.334,149.407c0,58.573-60.713,84.928-95.666,84.928C80.777,234.335,30,207.98,30,149.407
			c0-58.577,59.24-11.307,95.667-11.307C160.621,138.101,221.334,90.831,221.334,149.407z"/>
	</g>
</g>
<path style="fill:none;stroke:#000000;stroke-width:13;stroke-linecap:round;" d="M70.109,37.334c0,0,14.667-22,28.667-1.333"/>
<path style="fill:none;stroke:#000000;stroke-width:13;stroke-linecap:round;" d="M146.546,37.334c0,0,14.667-22,28.666-1.333"/>
<path style="opacity:0.15;fill:#B2B2B2;" d="M123,208.668c-38.458,0-72.025-14.344-89.919-35.645
	c11.633,42.088,54.253,61.312,92.587,61.312c32.301,0,86.595-22.509,94.65-72.149C205.741,189.316,167.672,208.668,123,208.668z"/>
<g>
	<g style="opacity:0.03;">
		<path d="M142.243,105.145c-3.769-17.417-17.886-24.461-17.886-24.461s-9.94,12.251-6.17,29.667c0,0,4.292,14.79,13.794,12.733
			C144.993,120.268,142.243,105.145,142.243,105.145z"/>
		<ellipse transform="matrix(0.9967 0.0808 -0.0808 0.9967 9.367 -10.4895)" cx="134.299" cy="110.5" rx="3.251" ry="5.451"/>
	</g>
	<g>
		<g>
			<path style="fill:#00B5E0;" d="M142.243,98.145c-3.769-17.417-17.886-24.461-17.886-24.461s-9.94,12.251-6.17,29.667
				c0,0,4.292,14.789,13.794,12.733C144.993,113.268,142.243,98.145,142.243,98.145z"/>
			
				<ellipse transform="matrix(0.9967 0.0808 -0.0808 0.9967 8.8014 -10.5124)" style="fill:#FFFFFF;" cx="134.299" cy="103.5" rx="3.251" ry="5.451"/>
		</g>
	</g>
</g>
</svg>
