<?xml version="1.0" encoding="iso-8859-1"?>
<!-- Generator: Adobe Illustrator 12.0.0, SVG Export Plug-In . SVG Version: 6.00 Build 51448)  -->
<!DOCTYPE svg PUBLIC "-//W3C//DTD SVG 1.1//EN" "http://www.w3.org/Graphics/SVG/1.1/DTD/svg11.dtd" [
	<!ENTITY ns_svg "http://www.w3.org/2000/svg">
	<!ENTITY ns_xlink "http://www.w3.org/1999/xlink">
]>
<svg  version="1.1" id="&#x56FE;&#x5C42;_1" xmlns="&ns_svg;" xmlns:xlink="&ns_xlink;" width="248" height="251.668"
	 viewBox="0 0 248 251.668" style="overflow:visible;enable-background:new 0 0 248 251.668;" xml:space="preserve">
<circle style="fill:#FFBF00;" cx="124" cy="124" r="124"/>
<g>
	<path style="fill:#FF0000;" d="M64.331,166.934c-0.826,7.523-7.737,70.488-8.752,79.734c9.792,0,112.375,0,122.283,0
		c-1.14-9.339-8.818-72.307-9.725-79.734C160.303,166.934,72.256,166.934,64.331,166.934z"/>
	<path style="fill:#FFBF00;" d="M172.564,161.934H59.849L50,251.668h10l0,0h0.06l0,0h113.374l0,0h0.073l0,0h10L172.564,161.934
		L172.564,161.934z M68.811,171.934h94.899l8.504,69.734H61.157L68.811,171.934L68.811,171.934z"/>
</g>
<g>
	<g style="opacity:0.03;">
		<ellipse cx="72.599" cy="125.711" rx="36.432" ry="32.766"/>
		<circle cx="74.145" cy="145.717" r="7.525"/>
		<path d="M23.039,123.17c12.161,2.343,26.045,3.738,40.806,3.871c18.285,0.164,35.261-1.631,49.299-4.825
			c-1.252-17.188-20.737-30.978-44.728-31.192C43.61,90.802,23.359,105.177,23.039,123.17z"/>
	</g>
	<g>
		<g>
			<ellipse style="fill:#FFFFFF;" cx="72.599" cy="118.711" rx="36.432" ry="32.766"/>
			<circle cx="74.145" cy="138.717" r="7.525"/>
			<path style="fill:#FFBF00;" d="M23.039,116.17c12.161,2.343,26.045,3.738,40.806,3.871c18.285,0.164,35.261-1.631,49.299-4.825
				c-1.252-17.188-20.737-30.978-44.728-31.192C43.61,83.802,23.359,98.177,23.039,116.17z"/>
		</g>
	</g>
</g>
<g>
	<g style="opacity:0.03;">
		<ellipse cx="169.456" cy="125.711" rx="36.432" ry="32.766"/>
		<circle cx="166.399" cy="145.934" r="7.525"/>
		<path d="M217.557,123.303c-11.947,2.431-25.599,3.925-40.127,4.166c-17.988,0.294-34.71-1.377-48.548-4.47
			c1.101-17.196,20.172-31.127,43.778-31.515C197.067,91.083,217.105,105.312,217.557,123.303z"/>
	</g>
	<g>
		<g>
			<ellipse style="fill:#FFFFFF;" cx="169.456" cy="118.711" rx="36.432" ry="32.766"/>
			<circle cx="166.399" cy="138.934" r="7.525"/>
			<path style="fill:#FFBF00;" d="M217.557,116.303c-11.947,2.431-25.599,3.925-40.127,4.165
				c-17.988,0.294-34.71-1.376-48.548-4.469c1.101-17.196,20.172-31.127,43.778-31.515
				C197.067,84.083,217.105,98.312,217.557,116.303z"/>
		</g>
	</g>
</g>
<rect x="89" y="172.934" style="fill:#FFFFFF;" width="53" height="15.734"/>
<g>
	<g style="opacity:0.03;">
		<path d="M149.776,56.898c0,0,19.422,2.629,23.268,17.217c10.421,39.534,54.073,12.964,19.42-17.339
			C192.464,56.775,176.594,41.308,149.776,56.898z"/>
		<ellipse transform="matrix(0.9058 -0.4237 0.4237 0.9058 -13.3616 89.9623)" cx="195.667" cy="75.035" rx="4.048" ry="7.567"/>
	</g>
	<g>
		<g>
			<path style="fill:#00B5E0;" d="M149.776,49.898c0,0,19.422,2.629,23.268,17.217c10.421,39.534,54.073,12.964,19.42-17.339
				C192.464,49.775,176.594,34.308,149.776,49.898z"/>
			
				<ellipse transform="matrix(0.9058 -0.4237 0.4237 0.9058 -10.396 89.303)" style="fill:#FFFFFF;" cx="195.667" cy="68.035" rx="4.048" ry="7.567"/>
		</g>
	</g>
</g>
<g>
	<g style="opacity:0.03;">
		<path d="M71.862,78.476c0,0-7.217,0.977-8.646,6.397c-3.873,14.691-20.094,4.817-7.216-6.443
			C55.999,78.43,61.896,72.682,71.862,78.476z"/>
		<ellipse transform="matrix(-0.9058 -0.4236 0.4236 -0.9058 68.3576 185.625)" cx="54.809" cy="85.215" rx="1.504" ry="2.811"/>
	</g>
	<g>
		<g>
			<path style="fill:#00B5E0;" d="M71.862,71.476c0,0-7.217,0.977-8.646,6.397c-3.873,14.691-20.094,4.817-7.216-6.443
				C55.999,71.43,61.896,65.682,71.862,71.476z"/>
			
				<ellipse transform="matrix(-0.9058 -0.4236 0.4236 -0.9058 71.323 172.2841)" style="fill:#FFFFFF;" cx="54.809" cy="78.215" rx="1.504" ry="2.811"/>
		</g>
	</g>
</g>
</svg>
