<?xml version="1.0" encoding="iso-8859-1"?>
<!-- Generator: Adobe Illustrator 12.0.0, SVG Export Plug-In . SVG Version: 6.00 Build 51448)  -->
<!DOCTYPE svg PUBLIC "-//W3C//DTD SVG 1.1//EN" "http://www.w3.org/Graphics/SVG/1.1/DTD/svg11.dtd" [
	<!ENTITY ns_svg "http://www.w3.org/2000/svg">
	<!ENTITY ns_xlink "http://www.w3.org/1999/xlink">
]>
<svg  version="1.1" id="&#x56FE;&#x5C42;_1" xmlns="&ns_svg;" xmlns:xlink="&ns_xlink;" width="248" height="248"
	 viewBox="0 0 248 248" style="overflow:visible;enable-background:new 0 0 248 248;" xml:space="preserve">
<circle style="fill:#FFBF00;" cx="124" cy="124" r="124"/>
<path style="fill:none;stroke:#000000;stroke-width:13;stroke-linecap:round;stroke-linejoin:round;" d="M63.394,219.628
	c0-38.476,36.563-69.667,81.667-69.667"/>
<g>
	<path style="fill:#FFFFFF;" d="M121.251,75.085c5.149,26.298,28.253,43.907,51.608,39.335c23.354-4.572,38.113-29.596,32.964-55.89
		c-5.147-26.295-33.997-42.508-57.354-37.936C125.117,25.167,116.104,48.791,121.251,75.085z"/>
	<path d="M143.719,46.528c1.732,7.12,8.909,11.486,16.027,9.752c7.122-1.734,11.487-8.909,9.753-16.03
		c-1.732-7.12-8.909-11.486-16.027-9.752C146.351,32.231,141.983,39.409,143.719,46.528z"/>
	<path style="opacity:0.09;fill:#B2B2B2;" d="M123.679,85.044c-1.397-7.213-1.689-14.233-0.881-20.726
		c6.229,19.177,38.653,36.821,60.07,31.606c22.738-5.536,28.684-28.241,21.24-45.124c3.604,4.952,6.231,10.621,7.443,16.883
		c5.101,26.308-10.433,51.519-34.7,56.314C152.585,128.791,128.778,111.353,123.679,85.044z"/>
</g>
<g>
	<path style="fill:#FFFFFF;" d="M111.083,76.918c3.957,24.517-10.486,47.241-32.261,50.755
		c-21.774,3.515-42.634-13.512-46.592-38.028c-3.957-24.517,17.403-49.227,39.176-52.74C93.182,33.39,107.126,52.402,111.083,76.918
		z"/>
	<circle cx="76.965" cy="64.146" r="10.469"/>
	<path style="opacity:0.09;fill:#B2B2B2;" d="M117.609,80.887c-1.184-7.253-3.337-13.939-6.335-19.751
		c0.795,20.146-23.444,47.911-45.281,50.423c-23.185,2.667-36.589-16.581-35.457-34.996c-1.663,5.892-2.161,12.119-1.133,18.416
		c4.313,26.447,27.555,44.732,51.913,40.842S121.924,107.336,117.609,80.887z"/>
</g>
</svg>
