<?xml version="1.0" encoding="iso-8859-1"?>
<!-- Generator: Adobe Illustrator 12.0.0, SVG Export Plug-In . SVG Version: 6.00 Build 51448)  -->
<!DOCTYPE svg PUBLIC "-//W3C//DTD SVG 1.1//EN" "http://www.w3.org/Graphics/SVG/1.1/DTD/svg11.dtd" [
	<!ENTITY ns_svg "http://www.w3.org/2000/svg">
	<!ENTITY ns_xlink "http://www.w3.org/1999/xlink">
]>
<svg  version="1.1" id="&#x56FE;&#x5C42;_1" xmlns="&ns_svg;" xmlns:xlink="&ns_xlink;" width="248" height="249.668"
	 viewBox="0 0 248 249.668" style="overflow:visible;enable-background:new 0 0 248 249.668;" xml:space="preserve">
<circle style="fill:#FFBF00;" cx="124" cy="124" r="124"/>
<g>
	<g>
		<path style="fill:#FFFFFF;" d="M182.167,204.634c0,8.942,3.993,17.3,10.956,22.929c2.529,2.045,2.469,5.26,2.399,8.981
			c-0.048,2.527-0.127,6.757,1.134,8.042c0.379,0.386,1.108,0.582,2.17,0.582c5.59,0,5.791-1.268,6.231-4.045
			c0.275-1.737,1.114-7.022,6.575-7.022c16.248,0,29.467-13.219,29.467-29.467c0-16.247-13.219-29.466-29.467-29.466
			C195.386,175.168,182.167,188.387,182.167,204.634z"/>
		<path style="fill:#FFBF00;" d="M211.632,170.668c-18.758,0-33.966,15.208-33.966,33.966c0,10.676,4.925,20.201,12.627,26.428
			c0.631,0.511,0.752,1.896,0.752,3.695c0,1.114-0.047,2.387-0.047,3.709c-0.002,5.219,0.714,11.202,7.827,11.202
			c14.675,0,8.275-11.067,12.807-11.067c18.76,0,33.967-15.208,33.967-33.967C245.599,185.876,230.392,170.668,211.632,170.668
			L211.632,170.668z M200.071,240.623c-0.101-1.292-0.068-3.005-0.05-3.994c0.028-1.532,0.056-2.979-0.075-4.415
			c-0.323-3.527-1.667-6.269-3.995-8.151c-5.901-4.771-9.285-11.852-9.285-19.429c0-6.668,2.597-12.938,7.313-17.652
			c4.716-4.717,10.985-7.313,17.653-7.313c6.669,0,12.939,2.597,17.655,7.313c4.715,4.715,7.312,10.984,7.312,17.652
			c0,6.669-2.597,12.939-7.313,17.654c-4.715,4.716-10.985,7.313-17.654,7.313c-4.143,0-7.728,2.191-9.59,5.86
			c-0.935,1.844-1.221,3.643-1.429,4.957c-0.008,0.048-0.016,0.1-0.024,0.152C200.438,240.59,200.266,240.607,200.071,240.623
			L200.071,240.623z"/>
	</g>
	<g style="opacity:0.15;">
		<path style="fill:#B2B2B2;" d="M225.113,188.521c0,12.855-10.35,23.314-23.071,23.314c-5.664,0-10.991-2.134-15.213-5.903
			c0.323,4.69,2.975,8.621,5.805,12.756c1.868,2.73,3.801,5.554,5.038,8.66c4.896,12.291,6.91,14.021,7.674,13.959
			c0.872-0.071,1.521-3.03,1.996-5.191c0.743-3.385,1.512-6.884,3.656-6.884c13.36,0,24.23-10.871,24.23-24.232
			c0-8-3.903-15.328-10.444-19.868C224.947,186.259,225.113,187.389,225.113,188.521z"/>
		<path style="fill:#FFBF00;" d="M224.181,184.082c0.064,0.326,0.121,0.654,0.171,0.985l0,0c0.019,0.119,0.036,0.239,0.052,0.358
			l0,0c0.138,1.013,0.21,2.046,0.21,3.096l0,0l0,0c0,12.601-10.106,22.814-22.572,22.814c-6.139,0-11.702-2.481-15.771-6.5
			c-0.001,0.055-0.005,0.109-0.005,0.165c0,0.281,0.009,0.56,0.025,0.835l0,0c0.008,0.143,0.019,0.284,0.031,0.425l0,0
			c0.707,7.898,7.875,13.716,10.886,21.273c4.291,10.772,6.643,14.274,8.106,14.274c2.716,0,2.364-12.075,5.685-12.075
			c13.658,0,24.729-11.073,24.729-24.732C235.728,196.191,231.119,188.462,224.181,184.082L224.181,184.082z M202.041,212.336
			c6.298,0,12.219-2.478,16.672-6.979c4.449-4.497,6.9-10.477,6.9-16.836c0-0.763-0.037-1.529-0.111-2.294
			c2.51,1.942,4.624,4.379,6.183,7.144c1.991,3.53,3.043,7.552,3.043,11.63c0,6.339-2.468,12.299-6.949,16.781
			c-4.482,4.481-10.442,6.951-16.78,6.951c-2.547,0-3.36,3.699-4.146,7.276c-0.277,1.27-0.541,2.466-0.854,3.406
			c-0.357,1.067-0.631,1.332-0.706,1.388c-0.127-0.038-0.806-0.345-2.205-2.765c-1.336-2.31-2.955-5.866-4.95-10.875
			c-1.258-3.158-3.206-6.004-5.09-8.757c-2.518-3.679-4.916-7.185-5.593-11.183C191.599,210.537,196.692,212.336,202.041,212.336
			L202.041,212.336z"/>
	</g>
</g>
<path style="stroke:#000000;stroke-width:9;stroke-linecap:round;stroke-linejoin:round;" d="M73.008,83.918
	c0,11.322,7.998,28.5,17.864,28.5c9.866,0,17.865-17.178,17.865-28.5H44.25"/>
<path style="stroke:#000000;stroke-width:9;stroke-linecap:round;stroke-linejoin:round;" d="M165.022,83.918
	c0,11.322,7.998,28.5,17.865,28.5c9.866,0,17.864-17.178,17.864-28.5h-64.486"/>
<g>
	<g>
		<path style="fill:#FFFFFF;" d="M7.834,204.634c0,16.248,13.219,29.467,29.467,29.467c5.461,0,6.299,5.285,6.575,7.022
			c0.44,2.777,0.642,4.045,6.232,4.045c1.061,0,1.791-0.195,2.169-0.581c1.26-1.284,1.181-5.515,1.133-8.042
			c-0.07-3.723-0.13-6.938,2.399-8.982c6.963-5.629,10.957-13.986,10.957-22.929c0-16.247-13.218-29.466-29.466-29.466
			C21.053,175.168,7.834,188.387,7.834,204.634z"/>
		<path style="fill:#FFBF00;" d="M37.3,170.668c-18.759,0-33.967,15.208-33.967,33.966c0,18.759,15.208,33.967,33.967,33.967
			c4.532,0-1.867,11.067,12.808,11.067c7.114,0,7.829-5.983,7.827-11.202c0-1.322-0.047-2.595-0.047-3.709
			c0-1.799,0.12-3.185,0.751-3.695c7.702-6.227,12.627-15.752,12.627-26.428C71.266,185.876,56.059,170.668,37.3,170.668
			L37.3,170.668z M48.344,240.57c-0.008-0.053-0.017-0.104-0.024-0.152c-0.209-1.314-0.494-3.114-1.43-4.958
			c-1.863-3.669-5.448-5.859-9.59-5.859c-6.669,0-12.938-2.597-17.654-7.313s-7.313-10.985-7.313-17.654
			c0-6.668,2.597-12.938,7.313-17.652c4.716-4.717,10.985-7.313,17.654-7.313c6.669,0,12.938,2.597,17.654,7.313
			c4.715,4.715,7.312,10.984,7.312,17.652c0,7.577-3.384,14.658-9.285,19.429c-2.328,1.884-3.672,4.625-3.994,8.151
			c-0.131,1.436-0.104,2.882-0.075,4.415c0.018,0.989,0.05,2.702-0.05,3.994C48.668,240.607,48.496,240.59,48.344,240.57
			L48.344,240.57z"/>
	</g>
	<g style="opacity:0.15;">
		<path style="fill:#B2B2B2;" d="M13.705,205c0,13.361,10.87,24.232,24.23,24.232c2.145,0,2.913,3.499,3.656,6.884
			c0.475,2.16,1.124,5.12,1.996,5.191c0.765,0.063,2.778-1.668,7.675-13.959c1.237-3.106,3.169-5.93,5.038-8.66
			c2.831-4.135,5.482-8.065,5.804-12.756c-4.221,3.77-9.548,5.903-15.212,5.903l0,0c-12.722,0-23.071-10.459-23.071-23.314l0,0
			c0-1.133,0.166-2.263,0.33-3.39C17.609,189.672,13.705,197,13.705,205z"/>
		<path style="fill:#FFBF00;" d="M24.751,184.082c-6.937,4.38-11.546,12.109-11.546,20.919c0,13.659,11.072,24.732,24.73,24.732
			c3.319,0,2.968,12.075,5.684,12.075c1.462,0,3.814-3.502,8.107-14.274c3.011-7.558,10.177-13.374,10.884-21.271l0,0
			c0.013-0.142,0.023-0.284,0.032-0.427l0,0c0.017-0.275,0.025-0.554,0.025-0.835c0-0.056-0.003-0.11-0.004-0.165
			c-4.07,4.019-9.632,6.5-15.772,6.5c-12.466,0-22.571-10.214-22.571-22.814l0,0l0,0c0-1.05,0.072-2.083,0.209-3.096l0,0
			c0.016-0.12,0.033-0.239,0.051-0.358l0,0C24.63,184.736,24.687,184.408,24.751,184.082L24.751,184.082z M43.64,240.803
			c-0.077-0.058-0.35-0.325-0.705-1.387c-0.314-0.94-0.577-2.138-0.855-3.406c-0.786-3.578-1.598-7.276-4.145-7.276
			c-6.338,0-12.298-2.47-16.78-6.951c-4.482-4.482-6.95-10.442-6.95-16.781c0-4.078,1.052-8.1,3.043-11.63
			c1.559-2.765,3.672-5.202,6.182-7.144c-0.073,0.764-0.11,1.53-0.11,2.294c0,6.359,2.45,12.339,6.9,16.836
			c4.452,4.501,10.373,6.979,16.671,6.979c5.348,0,10.441-1.799,14.587-5.11c-0.676,3.998-3.075,7.503-5.591,11.182
			c-1.884,2.753-3.832,5.6-5.09,8.757c-1.996,5.008-3.615,8.563-4.95,10.873C44.458,240.438,43.779,240.761,43.64,240.803
			L43.64,240.803z"/>
	</g>
</g>
</svg>
