<?xml version="1.0" encoding="iso-8859-1"?>
<!-- Generator: Adobe Illustrator 12.0.0, SVG Export Plug-In . SVG Version: 6.00 Build 51448)  -->
<!DOCTYPE svg PUBLIC "-//W3C//DTD SVG 1.1//EN" "http://www.w3.org/Graphics/SVG/1.1/DTD/svg11.dtd" [
	<!ENTITY ns_svg "http://www.w3.org/2000/svg">
	<!ENTITY ns_xlink "http://www.w3.org/1999/xlink">
]>
<svg  version="1.1" id="&#x56FE;&#x5C42;_1" xmlns="&ns_svg;" xmlns:xlink="&ns_xlink;" width="248" height="248"
	 viewBox="0 0 248 248" style="overflow:visible;enable-background:new 0 0 248 248;" xml:space="preserve">
<circle style="fill:#FFBF00;" cx="124" cy="124" r="124"/>
<path style="fill:none;stroke:#000000;stroke-width:13;stroke-linecap:round;stroke-linejoin:round;" d="M52,83.668
	c0-20.987,13.084-38,29.225-38c16.14,0,29.225,17.013,29.225,38"/>
<path style="fill:none;stroke:#8F0000;stroke-width:15;stroke-linecap:round;stroke-linejoin:round;" d="M194.888,152.515
	c0,27.699-32.435,50.153-72.444,50.153C82.434,202.668,50,180.214,50,152.515"/>
<path style="fill:none;stroke:#000000;stroke-width:13;stroke-linecap:round;stroke-linejoin:round;" d="M136,83.668
	c0-20.987,13.084-38,29.225-38s29.225,17.013,29.225,38"/>
<g>
	<g style="opacity:0.03;">
		<path d="M192.732,139.03c-22.262-18.04-57.309,28.247-72.421,18.091c0,0,0.032-7.102,8.922-18.139
			c8.76-10.877-0.981-21.848-9.905-17.583c-14.714,7.032-30.166,45.792-61.664,62.722c-11.842,6.365-27.047,7.912-40.125,11.737
			c11.043,17.224,25.94,31.739,43.471,42.335c6.138-5.77,11.976-11.36,20.405-15.292c9.582-4.468,46.28,10.618,70.694-1.052
			C217.591,190.557,203.837,148.028,192.732,139.03z"/>
	</g>
	<g>
		<path style="fill:#FFFFFF;" d="M192.732,132.03c-22.262-18.04-57.309,28.247-72.421,18.091c0,0,0.032-7.102,8.922-18.139
			c8.76-10.877-0.981-21.848-9.905-17.583c-14.714,7.032-30.166,45.792-61.664,62.722c-11.842,6.365-27.047,7.912-40.125,11.737
			c11.043,17.224,25.94,31.739,43.471,42.335c6.138-5.77,11.976-11.36,20.405-15.292c9.582-4.468,46.28,10.618,70.694-1.052
			C217.591,183.557,203.837,141.028,192.732,132.03z"/>
	</g>
</g>
<path style="opacity:0.15;fill:#FFBF00;" d="M199.401,140.925c-11.864,34.049-63.028,59.657-124.348,59.657
	c-19.157,0-21.807,15.51-38.093,11.034c10.552,14.714,8.508,9.183,24.053,18.578c6.137-5.77,11.975-11.36,20.404-15.292
	c9.583-4.468,46.28,10.618,70.694-1.052C203.635,189.227,206.1,157.651,199.401,140.925z"/>
</svg>
