<?xml version="1.0" encoding="iso-8859-1"?>
<!-- Generator: Adobe Illustrator 12.0.0, SVG Export Plug-In . SVG Version: 6.00 Build 51448)  -->
<!DOCTYPE svg PUBLIC "-//W3C//DTD SVG 1.1//EN" "http://www.w3.org/Graphics/SVG/1.1/DTD/svg11.dtd" [
	<!ENTITY ns_svg "http://www.w3.org/2000/svg">
	<!ENTITY ns_xlink "http://www.w3.org/1999/xlink">
]>
<svg  version="1.1" id="&#x56FE;&#x5C42;_1" xmlns="&ns_svg;" xmlns:xlink="&ns_xlink;" width="248" height="248.601"
	 viewBox="0 0 248 248.601" style="overflow:visible;enable-background:new 0 0 248 248.601;" xml:space="preserve">
<circle style="fill:#FFBF00;" cx="124" cy="124" r="124"/>
<g>
	<path style="fill:#FFFFFF;" d="M10.333,214.634c0,15.421,12.545,27.967,27.966,27.967c15.42,0,27.966-12.546,27.966-27.967
		c0-15.42-12.545-27.966-27.966-27.966C22.879,186.668,10.333,199.214,10.333,214.634z"/>
	<path style="fill:#FFBF00;" d="M38.299,180.668c-18.759,0-33.966,15.208-33.966,33.966c0,18.759,15.207,33.967,33.966,33.967
		c18.759,0,33.966-15.208,33.966-33.967C72.265,195.876,57.058,180.668,38.299,180.668L38.299,180.668z M38.299,236.601
		c-5.867,0-11.383-2.284-15.532-6.434s-6.434-9.665-6.434-15.533c0-5.867,2.285-11.383,6.434-15.532
		c4.149-4.148,9.665-6.434,15.532-6.434c5.867,0,11.383,2.285,15.532,6.434c4.149,4.149,6.434,9.665,6.434,15.532
		c0,5.868-2.285,11.384-6.434,15.533S44.166,236.601,38.299,236.601L38.299,236.601z"/>
</g>
<g>
	<path style="fill:#FFFFFF;" d="M183.667,214.634c0,15.421,12.546,27.967,27.966,27.967c15.421,0,27.967-12.546,27.967-27.967
		c0-15.42-12.546-27.966-27.967-27.966C196.213,186.668,183.667,199.214,183.667,214.634z"/>
	<path style="fill:#FFBF00;" d="M211.632,180.668c-18.758,0-33.966,15.208-33.966,33.966c0,18.759,15.208,33.967,33.966,33.967
		c18.76,0,33.967-15.208,33.967-33.967C245.599,195.876,230.392,180.668,211.632,180.668L211.632,180.668z M211.632,236.601
		c-12.112,0-21.966-9.854-21.966-21.967c0-12.112,9.854-21.966,21.966-21.966c5.868,0,11.384,2.285,15.533,6.434
		c4.149,4.149,6.434,9.665,6.434,15.532c0,5.868-2.284,11.384-6.434,15.533S217.5,236.601,211.632,236.601L211.632,236.601z"/>
</g>
<path style="fill:#BF0000;" d="M172.129,193.668c0,18.962-21.938,15-49,15c-27.063,0-49,3.962-49-15s21.938-34.333,49-34.333
	C150.19,159.335,172.129,174.706,172.129,193.668z"/>
<g style="opacity:0.15;">
	<path style="fill:#B2B2B2;" d="M51.516,193.081c0.281,1.437,0.431,2.921,0.431,4.44c0,12.6-10.105,22.814-22.572,22.814
		c-6.139,0-11.703-2.481-15.771-6.5c-0.001,0.055-0.004,0.108-0.004,0.164c0,13.659,11.073,24.732,24.732,24.732
		c13.659,0,24.731-11.073,24.731-24.732C63.063,205.19,58.453,197.462,51.516,193.081z"/>
</g>
<g style="opacity:0.15;">
	<path style="fill:#B2B2B2;" d="M224.182,194.081c0.281,1.437,0.432,2.921,0.432,4.44c0,12.6-10.105,22.814-22.571,22.814
		c-6.14,0-11.702-2.481-15.771-6.5c-0.001,0.055-0.005,0.108-0.005,0.164c0,13.659,11.073,24.732,24.732,24.732
		c13.658,0,24.73-11.073,24.73-24.732C235.729,206.19,231.119,198.462,224.182,194.081z"/>
</g>
<path style="fill:#FFFFFF;" d="M123.084,172.001c16.564,0,31.869,2.59,44.287,6.967c-7.861-11.605-24.734-19.633-44.287-19.633
	c-19.554,0-36.427,8.027-44.288,19.633C91.214,174.591,106.518,172.001,123.084,172.001z"/>
<g>
	<path style="fill:none;stroke:#000000;stroke-width:9;stroke-linecap:round;stroke-linejoin:round;" d="M195.095,71.737
		c0,0-35.755-0.284-47.868,24.023c0,0,21.337-11.188,49.021,0"/>
	<path style="fill:none;stroke:#000000;stroke-width:9;stroke-linecap:round;stroke-linejoin:round;" d="M57.28,71.737
		c0,0,35.755-0.284,47.869,24.023c0,0-21.337-11.188-49.022,0"/>
	<path style="fill:none;stroke:#000000;stroke-width:9;stroke-linecap:round;stroke-linejoin:round;" d="M147.227,95.76
		c0,0,25.273-4.592,36.273,13.908"/>
	<path style="fill:none;stroke:#000000;stroke-width:9;stroke-linecap:round;stroke-linejoin:round;" d="M105.149,95.76
		c0,0-27.149-2.092-36.649,13.908"/>
</g>
</svg>
