<?xml version="1.0" encoding="iso-8859-1"?>
<!-- Generator: Adobe Illustrator 12.0.0, SVG Export Plug-In . SVG Version: 6.00 Build 51448)  -->
<!DOCTYPE svg PUBLIC "-//W3C//DTD SVG 1.1//EN" "http://www.w3.org/Graphics/SVG/1.1/DTD/svg11.dtd" [
	<!ENTITY ns_svg "http://www.w3.org/2000/svg">
	<!ENTITY ns_xlink "http://www.w3.org/1999/xlink">
]>
<svg  version="1.1" id="&#x56FE;&#x5C42;_1" xmlns="&ns_svg;" xmlns:xlink="&ns_xlink;" width="248" height="248"
	 viewBox="0 0 248 248" style="overflow:visible;enable-background:new 0 0 248 248;" xml:space="preserve">
<circle style="fill:#FFBF00;" cx="124" cy="124" r="124"/>
<g>
	<g style="opacity:0.03;">
		<path d="M217.986,155.341c0,44.09-41.797,79.83-93.354,79.83c-51.561,0-93.358-35.74-93.358-79.83
			c0-44.092,46.116-18.222,97.676-18.222C180.509,137.119,217.986,111.249,217.986,155.341z"/>
	</g>
	<g>
		<path style="fill:#FFFFFF;" d="M217.986,148.341c0,44.09-41.797,79.83-93.354,79.83c-51.561,0-93.358-35.74-93.358-79.83
			c0-44.092,46.116-18.222,97.676-18.222C180.509,130.119,217.986,104.249,217.986,148.341z"/>
	</g>
</g>
<path style="opacity:0.15;fill:#B2B2B2;" d="M124.789,209.662c-45.927,0-84.256-22.544-93.217-52.537
	c5.115,39.956,44.704,71.046,92.793,71.046c46.275,0,84.681-28.794,92.066-66.574C205.166,189.331,168.404,209.662,124.789,209.662z
	"/>
<path style="fill:none;stroke:#000000;stroke-width:13;stroke-linecap:round;stroke-linejoin:round;" d="M61,63.668
	c0-15.753,9.822-28.524,21.938-28.524s21.938,12.771,21.938,28.524"/>
<path style="fill:none;stroke:#000000;stroke-width:13;stroke-linecap:round;stroke-linejoin:round;" d="M141.391,63.668
	c0-15.753,9.822-28.524,21.938-28.524c12.116,0,21.938,12.771,21.938,28.524"/>
</svg>
