<?xml version="1.0" encoding="iso-8859-1"?>
<!-- Generator: Adobe Illustrator 12.0.0, SVG Export Plug-In . SVG Version: 6.00 Build 51448)  -->
<!DOCTYPE svg PUBLIC "-//W3C//DTD SVG 1.1//EN" "http://www.w3.org/Graphics/SVG/1.1/DTD/svg11.dtd" [
	<!ENTITY ns_svg "http://www.w3.org/2000/svg">
	<!ENTITY ns_xlink "http://www.w3.org/1999/xlink">
]>
<svg  version="1.1" id="&#x56FE;&#x5C42;_1" xmlns="&ns_svg;" xmlns:xlink="&ns_xlink;" width="248" height="248"
	 viewBox="0 0 248 248" style="overflow:visible;enable-background:new 0 0 248 248;" xml:space="preserve">
<circle style="fill:#FFBF00;" cx="124" cy="124" r="124"/>
<path style="fill:none;stroke:#000000;stroke-width:10;stroke-linecap:round;stroke-linejoin:round;" d="M169,33.016
	c0,0,8.438,18.985,35.333,18.985"/>
<path style="fill:none;stroke:#000000;stroke-width:10;stroke-linecap:round;stroke-linejoin:round;" d="M81.996,33.016
	c0,0-7.481,16.833-31.329,16.833"/>
<g>
	<polyline style="fill:none;stroke:#BF0000;stroke-width:13;stroke-linecap:round;stroke-linejoin:round;" points="75.667,191.668 
		95.265,211.668 114.864,191.668 134.463,211.668 154.064,191.668 173.667,211.668 	"/>
</g>
<g>
	<g style="opacity:0.03;">
		<path d="M116.499,102.807c0,22.498-20.279,40.736-45.295,40.736c-25.015,0-45.294-18.238-45.294-40.736
			s31.469-40.736,56.484-40.736C107.409,62.071,116.499,80.31,116.499,102.807z"/>
	</g>
	<g>
		<path style="fill:#FFFFFF;" d="M116.499,95.807c0,22.498-20.279,40.736-45.295,40.736c-25.015,0-45.294-18.238-45.294-40.736
			s31.469-40.736,56.484-40.736C107.409,55.071,116.499,73.31,116.499,95.807z"/>
	</g>
</g>
<g>
	<g style="opacity:0.03;">
		<path d="M218.888,102.807c0,22.499-20.278,40.736-45.294,40.736c-25.017,0-45.295-18.237-45.295-40.736
			c0-22.498,11.576-40.736,36.593-40.736C189.907,62.071,218.888,80.31,218.888,102.807z"/>
	</g>
	<g>
		<path style="fill:#FFFFFF;" d="M218.888,95.807c0,22.499-20.278,40.736-45.294,40.736c-25.017,0-45.295-18.237-45.295-40.736
			c0-22.498,11.576-40.736,36.593-40.736C189.907,55.071,218.888,73.31,218.888,95.807z"/>
	</g>
</g>
<circle cx="82.141" cy="114.92" r="11.141"/>
<circle cx="164" cy="114.667" r="11.141"/>
</svg>
