<?xml version="1.0" encoding="iso-8859-1"?>
<!-- Generator: Adobe Illustrator 12.0.0, SVG Export Plug-In . SVG Version: 6.00 Build 51448)  -->
<!DOCTYPE svg PUBLIC "-//W3C//DTD SVG 1.1//EN" "http://www.w3.org/Graphics/SVG/1.1/DTD/svg11.dtd" [
	<!ENTITY ns_svg "http://www.w3.org/2000/svg">
	<!ENTITY ns_xlink "http://www.w3.org/1999/xlink">
]>
<svg  version="1.1" id="&#x56FE;&#x5C42;_1" xmlns="&ns_svg;" xmlns:xlink="&ns_xlink;" width="248" height="248"
	 viewBox="0 0 248 248" style="overflow:visible;enable-background:new 0 0 248 248;" xml:space="preserve">
<circle style="fill:#FFBF00;" cx="124" cy="124" r="124"/>
<polygon style="fill:#FFFFFF;" points="81.802,204.277 155.813,133.471 174.198,151.06 100.187,221.866 "/>
<g>
	<g style="opacity:0.03;">
		<path d="M120.569,81.711c0,24.724-17.911,44.767-40.006,44.767c-22.095,0-40.007-20.043-40.007-44.767
			c0-24.723,24.501-44.766,46.596-44.766S120.569,56.988,120.569,81.711z"/>
	</g>
	<g>
		<path style="fill:#FFFFFF;" d="M120.569,74.711c0,24.724-17.911,44.767-40.006,44.767c-22.095,0-40.007-20.043-40.007-44.767
			c0-24.723,24.501-44.766,46.596-44.766S120.569,49.988,120.569,74.711z"/>
	</g>
</g>
<g>
	<g style="opacity:0.03;">
		<path d="M211.007,81.711c0,24.725-17.911,44.767-40.007,44.767s-40.007-20.042-40.007-44.767c0-24.723,9.126-44.766,31.223-44.766
			C184.311,36.945,211.007,56.988,211.007,81.711z"/>
	</g>
	<g>
		<path style="fill:#FFFFFF;" d="M211.007,74.711c0,24.725-17.911,44.767-40.007,44.767s-40.007-20.042-40.007-44.767
			c0-24.723,9.126-44.766,31.223-44.766C184.311,29.945,211.007,49.988,211.007,74.711z"/>
	</g>
</g>
<circle cx="78.399" cy="81.618" r="14.12"/>
<circle cx="169.84" cy="81.618" r="14.12"/>
<polygon style="fill:#FFFFFF;stroke:#FFBF00;stroke-width:6;" points="155.813,221.866 81.802,151.06 100.187,133.471 
	174.197,204.277 "/>
<path style="opacity:0.15;fill:#B2B2B2;" d="M119.502,64.459c-1.676,24.778-18.498,44.247-39.017,44.247
	c-20.36,0-37.086-19.166-38.982-43.67c-0.614,3.117-0.947,6.352-0.947,9.676c0,24.724,17.912,44.767,40.007,44.767
	c22.096,0,40.006-20.043,40.006-44.767C120.569,71.182,120.193,67.753,119.502,64.459z"/>
<path style="opacity:0.15;fill:#B2B2B2;" d="M209.939,64.459c-1.676,24.778-18.498,44.247-39.018,44.247
	c-20.359,0-37.085-19.166-38.98-43.67c-0.615,3.117-0.948,6.352-0.948,9.676c0,24.724,17.912,44.767,40.007,44.767
	c22.096,0,40.007-20.043,40.007-44.767C211.007,71.182,210.63,67.753,209.939,64.459z"/>
</svg>
