<?xml version="1.0" encoding="iso-8859-1"?>
<!-- Generator: Adobe Illustrator 12.0.0, SVG Export Plug-In . SVG Version: 6.00 Build 51448)  -->
<!DOCTYPE svg PUBLIC "-//W3C//DTD SVG 1.1//EN" "http://www.w3.org/Graphics/SVG/1.1/DTD/svg11.dtd" [
	<!ENTITY ns_svg "http://www.w3.org/2000/svg">
	<!ENTITY ns_xlink "http://www.w3.org/1999/xlink">
]>
<svg  version="1.1" id="&#x56FE;&#x5C42;_1" xmlns="&ns_svg;" xmlns:xlink="&ns_xlink;" width="248" height="248"
	 viewBox="0 0 248 248" style="overflow:visible;enable-background:new 0 0 248 248;" xml:space="preserve">
<circle style="fill:#FFBF00;" cx="124" cy="124" r="124"/>
<g>
	<g style="opacity:0.03;">
		<ellipse cx="81.099" cy="119.711" rx="36.432" ry="32.766"/>
	</g>
	<g>
		<ellipse style="fill:#FFFFFF;" cx="81.099" cy="112.711" rx="36.432" ry="32.766"/>
	</g>
</g>
<g>
	<g style="opacity:0.03;">
		<ellipse cx="163.456" cy="119.711" rx="36.432" ry="32.766"/>
	</g>
	<g>
		<ellipse style="fill:#FFFFFF;" cx="163.456" cy="112.711" rx="36.432" ry="32.766"/>
	</g>
</g>
<circle cx="82.645" cy="132.717" r="7.525"/>
<circle cx="160.399" cy="132.934" r="7.525"/>
<path style="fill:#FFBF00;" d="M43.278,113.827c10.066,0.722,21.355,0.283,33.145-1.518c14.603-2.231,27.854-6.224,38.54-11.215
	c-3.716-16.807-21.432-27.874-40.592-24.947C54.559,79.174,40.688,96.017,43.278,113.827z"/>
<path style="fill:#FFBF00;" d="M200.063,115.764c-10.085,0.339-21.35-0.529-33.063-2.778c-14.506-2.785-27.597-7.279-38.085-12.672
	c4.353-16.654,22.478-27.039,41.513-23.385C190.108,80.707,203.329,98.065,200.063,115.764z"/>
</svg>
