<?xml version="1.0" encoding="iso-8859-1"?>
<!-- Generator: Adobe Illustrator 12.0.0, SVG Export Plug-In . SVG Version: 6.00 Build 51448)  -->
<!DOCTYPE svg PUBLIC "-//W3C//DTD SVG 1.1//EN" "http://www.w3.org/Graphics/SVG/1.1/DTD/svg11.dtd" [
	<!ENTITY ns_svg "http://www.w3.org/2000/svg">
	<!ENTITY ns_xlink "http://www.w3.org/1999/xlink">
]>
<svg  version="1.1" id="&#x56FE;&#x5C42;_1" xmlns="&ns_svg;" xmlns:xlink="&ns_xlink;" width="248" height="248"
	 viewBox="0 0 248 248" style="overflow:visible;enable-background:new 0 0 248 248;" xml:space="preserve">
<circle style="fill:#FFBF00;" cx="124" cy="124" r="124"/>
<g>
	<g style="opacity:0.03;">
		<path d="M120.093,78.824c0,24.109-18.211,43.653-40.675,43.653s-40.675-19.544-40.675-43.653
			c0-24.108,31.608-43.652,54.073-43.652S120.093,54.716,120.093,78.824z"/>
	</g>
	<g>
		<path style="fill:#FFFFFF;" d="M120.093,71.824c0,24.109-18.211,43.653-40.675,43.653S38.742,95.933,38.742,71.824
			c0-24.108,31.608-43.652,54.073-43.652S120.093,47.716,120.093,71.824z"/>
	</g>
</g>
<g>
	<g style="opacity:0.03;">
		<path d="M212.039,78.824c0,24.109-18.21,43.653-40.674,43.653c-22.466,0-40.676-19.543-40.676-43.653
			c0-24.108,8.162-43.652,30.627-43.652S212.039,54.716,212.039,78.824z"/>
	</g>
	<g>
		<path style="fill:#FFFFFF;" d="M212.039,71.824c0,24.109-18.21,43.653-40.674,43.653c-22.466,0-40.676-19.543-40.676-43.653
			c0-24.108,8.162-43.652,30.627-43.652S212.039,47.716,212.039,71.824z"/>
	</g>
</g>
<g>
	<g style="opacity:0.03;">
		<path d="M201.586,172.609c0,35.931-34.062,65.058-76.078,65.058c-42.019,0-76.081-29.127-76.081-65.058
			c0-35.932,37.582-14.849,79.6-14.849C171.044,157.761,201.586,136.678,201.586,172.609z"/>
	</g>
	<g>
		<path style="fill:#FFFFFF;" d="M201.586,165.609c0,35.931-34.062,65.058-76.078,65.058c-42.019,0-76.081-29.127-76.081-65.058
			c0-35.932,37.582-14.849,79.6-14.849C171.044,150.761,201.586,129.678,201.586,165.609z"/>
	</g>
</g>
<circle cx="152.066" cy="73.738" r="12.858"/>
<path style="opacity:0.15;fill:#B2B2B2;" d="M200.345,155.182c0.209,1.369,0.322,2.754,0.322,4.153
	c0,26.693-38.802,48.333-86.667,48.333c-21.108,0-40.452-4.211-55.484-11.205c12.854,20.365,38.031,34.204,66.992,34.204
	c42.017,0,76.078-29.127,76.078-65.058C201.586,161.385,201.158,157.957,200.345,155.182z"/>
<circle cx="98.795" cy="73.738" r="12.859"/>
<path style="opacity:0.1;fill:#B2B2B2;" d="M81,93.418c-26,0-33.634-8.815-42.245-21.986c-0.002,0.131-0.013,0.261-0.013,0.393
	c0,24.109,18.211,43.652,40.675,43.652c21.186,0,38.582-17.385,40.494-39.586C110.901,86.55,96.828,93.418,81,93.418z"/>
<path style="opacity:0.1;fill:#B2B2B2;" d="M210.039,64.825c0-5.406-2.039-7.969-4.496-12.747
	c6.496,19.747-16.878,45.34-45.293,45.34c-17.25,0-21.486-9.648-27.313-11.281c5.521,17.076,20.635,29.34,38.428,29.34
	c22.464,0,40.674-19.543,40.674-43.652c0-1.035-0.07-2.058-0.172-3.075C211.975,67.456,210.039,66.148,210.039,64.825z"/>
</svg>
