<?xml version="1.0" encoding="iso-8859-1"?>
<!-- Generator: Adobe Illustrator 12.0.0, SVG Export Plug-In . SVG Version: 6.00 Build 51448)  -->
<!DOCTYPE svg PUBLIC "-//W3C//DTD SVG 1.1//EN" "http://www.w3.org/Graphics/SVG/1.1/DTD/svg11.dtd" [
	<!ENTITY ns_svg "http://www.w3.org/2000/svg">
	<!ENTITY ns_xlink "http://www.w3.org/1999/xlink">
]>
<svg  version="1.1" id="&#x56FE;&#x5C42;_1" xmlns="&ns_svg;" xmlns:xlink="&ns_xlink;" width="248" height="248"
	 viewBox="0 0 248 248" style="overflow:visible;enable-background:new 0 0 248 248;" xml:space="preserve">
<circle style="fill:#FFBF00;" cx="124" cy="124" r="124"/>
<g>
	<g>
		<path style="fill:#FFFFFF;" d="M145.586,191.657L145.586,191.657c-2.035,2.518-5.271,2.474-10.629,2.4
			c-3.996-0.055-11.433-0.156-13.512,1.895c-0.163,0.16-0.465,0.458-0.465,1.407c0,6.14,4.253,8.676,10.262,11.587
			c3.658,1.773,7.806,3.783,7.806,8.222c0,20.277,20.607,22.467,29.467,22.467c16.247,0,29.466-13.219,29.466-29.467
			s-13.219-29.467-29.466-29.467C159.573,180.701,151.216,184.694,145.586,191.657z"/>
		<path style="fill:#FFBF00;" d="M168.514,176.202c-10.676,0-20.2,4.925-26.428,12.627c-0.51,0.631-2.316,0.752-4.751,0.752
			c-0.76,0-1.582-0.012-2.443-0.024c-0.858-0.011-1.758-0.022-2.677-0.022c-7.232,0-15.735,0.72-15.735,7.826
			c0,14.676,18.067,15.276,18.067,19.808c0,18.76,15.208,26.967,33.967,26.967c18.76,0,33.967-15.207,33.967-33.967
			C202.48,191.41,187.273,176.202,168.514,176.202L168.514,176.202z M137.335,198.581c3.361,0,8.441,0,11.751-4.095
			c4.771-5.9,11.851-9.284,19.428-9.284c6.669,0,12.938,2.597,17.654,7.313c4.715,4.715,7.313,10.985,7.313,17.653
			c0,6.669-2.598,12.939-7.313,17.655c-4.716,4.715-10.985,7.312-17.654,7.312c-7.813,0-14.482-1.693-18.781-4.769
			c-4.162-2.977-6.186-7.294-6.186-13.198c0-2.16-0.698-6.27-5.37-9.533c-1.532-1.069-3.204-1.88-4.973-2.736
			c-5.061-2.453-6.98-3.845-7.536-5.906c0.302-0.063,0.662-0.125,1.089-0.183c1.835-0.247,3.994-0.275,5.458-0.275
			c0.826,0,1.658,0.011,2.463,0.021l0.1,0.001c-0.004,0-0.008,0-0.011,0l0.12,0.002C135.741,198.57,136.548,198.581,137.335,198.581
			L137.335,198.581z M124.298,199.408c0.001-0.001,0.001-0.001,0.002-0.001C124.299,199.407,124.299,199.407,124.298,199.408
			L124.298,199.408z"/>
	</g>
	<g style="opacity:0.15;">
		<path style="fill:#B2B2B2;" d="M153.458,191.169c-2.729,1.868-5.553,3.8-8.657,5.038H144.8c-12.085,4.814-13.96,6.842-13.96,7.635
			c0,0.014,0,0.026,0.001,0.039c0.071,0.872,3.03,1.521,5.191,1.996c3.385,0.743,6.884,1.512,6.884,3.656
			c0,13.36,10.871,24.23,24.232,24.23c8,0,15.328-3.903,19.868-10.444c-1.127,0.163-2.257,0.329-3.39,0.329
			c-12.855,0-23.314-10.351-23.314-23.072c0-5.663,2.134-10.99,5.903-15.212C161.524,185.688,157.594,188.339,153.458,191.169z"/>
		<path style="fill:#FFBF00;" d="M167.148,184.801c-8.555,0-14.579,7.772-22.533,10.942c-10.762,4.287-14.268,6.638-14.275,8.101
			c-0.015,2.722,12.076,2.369,12.076,5.69c0,13.658,11.073,24.729,24.732,24.729c8.313,0,15.663-4.104,20.146-10.396l0,0
			c0.075-0.104,0.148-0.21,0.222-0.315l0,0c0.188-0.274,0.372-0.553,0.551-0.835c-1.438,0.282-2.921,0.433-4.441,0.433
			c-12.599,0-22.814-10.106-22.814-22.572l0,0l0,0c0-5.642,2.096-10.795,5.554-14.753l0,0c0.086-0.099,0.172-0.195,0.26-0.292l0,0
			c0.224-0.247,0.453-0.49,0.687-0.728C167.257,184.805,167.204,184.801,167.148,184.801L167.148,184.801z M131.346,203.829
			c0.041-0.138,0.36-0.816,2.766-2.207c2.308-1.335,5.864-2.955,10.874-4.95c3.156-1.258,6.003-3.206,8.755-5.09
			c3.679-2.518,7.184-4.916,11.183-5.593c-3.312,4.147-5.111,9.24-5.111,14.588c0,6.298,2.479,12.219,6.979,16.672
			c4.498,4.449,10.476,6.9,16.835,6.9c0.765,0,1.531-0.037,2.295-0.11c-1.941,2.509-4.379,4.623-7.144,6.182
			c-3.529,1.991-7.552,3.043-11.629,3.043c-6.34,0-12.3-2.468-16.781-6.949c-4.482-4.482-6.951-10.442-6.951-16.78
			c0-2.547-3.699-3.359-7.277-4.146c-1.268-0.277-2.466-0.542-3.405-0.855C131.674,204.18,131.405,203.907,131.346,203.829
			L131.346,203.829z"/>
	</g>
</g>
<g>
	<g>
		<path style="fill:#FFFFFF;" d="M38.3,210.168c0,16.248,13.218,29.467,29.466,29.467c14.245,0,29.467-6.165,29.467-23.467
			c0-4.584,4.247-6.407,7.994-8.016c6.085-2.612,10.074-4.774,10.074-10.793c0-0.949-0.302-1.247-0.465-1.407
			c-2.078-2.051-9.516-1.949-13.512-1.895c-5.359,0.073-8.594,0.117-10.629-2.399c-5.63-6.964-13.987-10.957-22.929-10.957
			C51.519,180.701,38.3,193.92,38.3,210.168z"/>
		<path style="fill:#FFBF00;" d="M67.766,176.202c-18.759,0-33.966,15.208-33.966,33.966c0,18.76,15.207,33.967,33.966,33.967
			c18.758,0,33.966-9.207,33.966-27.967c0-4.531,18.068-4.132,18.068-18.808c0-7.106-8.503-7.826-15.736-7.826
			c-0.92,0-1.819,0.012-2.677,0.022c-0.862,0.013-1.684,0.024-2.444,0.024c-2.435,0-4.241-0.121-4.75-0.752
			C87.967,181.127,78.441,176.202,67.766,176.202L67.766,176.202z M67.766,235.135c-6.669,0-12.938-2.597-17.654-7.312
			c-4.715-4.716-7.312-10.986-7.312-17.655c0-6.668,2.597-12.938,7.312-17.653c4.716-4.716,10.985-7.313,17.654-7.313
			c7.575,0,14.654,3.382,19.424,9.279c0,0-0.001-0.001-0.002-0.002c3.308,4.102,8.391,4.102,11.755,4.102
			c0.787,0,1.593-0.011,2.446-0.023l0.123-0.002l0.086-0.001c0.805-0.01,1.638-0.021,2.466-0.021c1.464,0,3.623,0.028,5.459,0.275
			c0.424,0.058,0.782,0.119,1.082,0.182c-0.225,0.782-0.64,1.298-1.206,1.805c-1.435,1.285-3.833,2.314-5.948,3.222
			c-1.793,0.771-3.487,1.496-5.063,2.511c-4.921,3.164-5.656,7.397-5.656,9.64c0,6.069-2.086,10.596-6.376,13.839
			C81.982,233.314,75.38,235.135,67.766,235.135L67.766,235.135z"/>
	</g>
	<g style="opacity:0.15;">
		<path style="fill:#B2B2B2;" d="M73.968,200.576c0,12.722-10.459,23.072-23.314,23.072c-1.132,0-2.263-0.166-3.389-0.329
			c4.54,6.541,11.868,10.444,19.868,10.444c14.268,0,24.232-8.73,24.232-21.23l0,0c0-1.976,3.002-3.063,6.181-4.215
			c2.752-0.998,5.871-2.128,5.895-3.606c0-0.007,0-0.013,0-0.02c0-1.94-4.697-4.795-13.96-8.485
			c-3.105-1.238-5.928-3.17-8.658-5.038c-4.136-2.83-8.066-5.481-12.757-5.805C71.835,189.586,73.968,194.913,73.968,200.576z"/>
		<path style="fill:#FFBF00;" d="M67.132,184.801c-0.056,0-0.11,0.004-0.164,0.004c0.234,0.237,0.463,0.48,0.687,0.728l0,0
			c0.087,0.097,0.174,0.193,0.26,0.292l0,0c3.458,3.958,5.553,9.111,5.553,14.753l0,0l0,0c0,12.466-10.215,22.572-22.815,22.572
			c-1.519,0-3.004-0.15-4.44-0.433c0.178,0.282,0.362,0.561,0.551,0.835l0,0c0.073,0.105,0.146,0.211,0.221,0.315l0,0
			c4.483,6.292,11.833,10.396,20.147,10.396c13.659,0,24.732-8.071,24.732-21.729c0-3.321,12.091-4.237,12.077-7.847
			c-0.008-1.939-3.514-4.657-14.275-8.944C81.711,192.573,75.686,184.801,67.132,184.801L67.132,184.801z M50.653,224.149
			c6.359,0,12.338-2.451,16.836-6.9c4.5-4.453,6.979-10.374,6.979-16.672c0-5.347-1.799-10.44-5.111-14.588
			c3.999,0.677,7.504,3.075,11.184,5.593c2.752,1.884,5.598,3.832,8.755,5.09c5.049,2.012,8.759,3.789,11.027,5.283
			c2.377,1.565,2.623,2.444,2.618,2.749c-0.018,1.134-3.356,2.344-5.565,3.144c-3.348,1.213-6.511,2.359-6.511,4.687
			c0,6.208-2.38,11.47-6.884,15.218c-4.27,3.555-10.253,5.512-16.848,5.512c-4.078,0-8.1-1.052-11.629-3.043
			c-2.765-1.559-5.202-3.673-7.144-6.182C49.122,224.112,49.888,224.149,50.653,224.149L50.653,224.149z"/>
	</g>
</g>
<g>
	<path style="fill:#00B5E0;" d="M94.76,155.594c0.924-14.26,13.574-21.642,13.574-21.642s11.623,8.419,10.697,22.679
		c0,0-1.849,12.248-11.437,11.839C94.467,167.908,94.76,155.594,94.76,155.594z"/>
	<path style="fill:#FFFFFF;" d="M100.232,159.435c0.709,2.344,2.682,3.964,4.404,3.619c1.721-0.345,2.541-2.521,1.831-4.864
		s-2.683-3.964-4.404-3.619C100.342,154.914,99.521,157.092,100.232,159.435z"/>
</g>
<g>
	<path style="stroke:#000000;" d="M95.5,88.066c0,8.535-4.813,15.453-10.75,15.453S74,96.601,74,88.066"/>
	
		<line style="stroke:#000000;stroke-width:10;stroke-linecap:round;stroke-linejoin:round;" x1="90.5" y1="88.918" x2="44.5" y2="88.918"/>
</g>
<g>
	<path style="stroke:#000000;" d="M176,88.066c0,8.535-4.813,15.453-10.75,15.453s-10.75-6.918-10.75-15.453"/>
	
		<line style="stroke:#000000;stroke-width:10;stroke-linecap:round;stroke-linejoin:round;" x1="171" y1="88.918" x2="125" y2="88.918"/>
</g>
</svg>
