<?xml version="1.0" encoding="iso-8859-1"?>
<!-- Generator: Adobe Illustrator 12.0.0, SVG Export Plug-In . SVG Version: 6.00 Build 51448)  -->
<!DOCTYPE svg PUBLIC "-//W3C//DTD SVG 1.1//EN" "http://www.w3.org/Graphics/SVG/1.1/DTD/svg11.dtd" [
	<!ENTITY ns_svg "http://www.w3.org/2000/svg">
	<!ENTITY ns_xlink "http://www.w3.org/1999/xlink">
]>
<svg  version="1.1" id="&#x56FE;&#x5C42;_1" xmlns="&ns_svg;" xmlns:xlink="&ns_xlink;" width="248" height="248"
	 viewBox="0 0 248 248" style="overflow:visible;enable-background:new 0 0 248 248;" xml:space="preserve">
<circle style="fill:#FFBF00;" cx="124" cy="124" r="124"/>
<g>
	<g style="opacity:0.03;">
		<path d="M209.326,66.778c-4.74-21.902-22.493-30.761-22.493-30.761s-12.5,15.407-7.759,37.309c0,0,5.397,18.598,17.347,16.012
			C212.784,85.796,209.326,66.778,209.326,66.778z"/>
		<ellipse transform="matrix(0.9967 0.0808 -0.0808 0.9967 6.59 -15.8625)" cx="199.335" cy="73.512" rx="4.089" ry="6.855"/>
	</g>
	<g>
		<g>
			<path style="fill:#00B5E0;" d="M209.326,59.778c-4.74-21.902-22.493-30.761-22.493-30.761s-12.5,15.407-7.759,37.309
				c0,0,5.397,18.598,17.347,16.012C212.784,78.796,209.326,59.778,209.326,59.778z"/>
			
				<ellipse transform="matrix(0.9967 0.0808 -0.0808 0.9967 6.0245 -15.8854)" style="fill:#FFFFFF;" cx="199.335" cy="66.512" rx="4.089" ry="6.855"/>
		</g>
	</g>
</g>
<g>
	<g style="opacity:0.03;">
		<path d="M108.104,131.857c0,24.814-22.367,44.93-49.958,44.93c-27.591,0-49.959-20.115-49.959-44.93s23.329-45.29,49.959-38.074
			C85.736,101.26,108.104,107.043,108.104,131.857z"/>
		<circle cx="53.002" cy="138.656" r="9.821"/>
		<path style="opacity:0.09;" d="M92.884,105.98c0.518,2.617,0.798,5.3,0.798,8.038c0,27.291-26.703,49.414-59.641,49.414
			c-4.33,0-8.548-0.393-12.615-1.117c9.128,8.896,22.197,14.473,36.719,14.473c27.59,0,49.958-20.115,49.958-44.93
			C108.104,119.188,102.264,111.486,92.884,105.98z"/>
	</g>
	<g>
		<g>
			<path style="fill:#FFFFFF;" d="M108.104,124.857c0,24.814-22.367,44.93-49.958,44.93c-27.591,0-49.959-20.115-49.959-44.93
				s23.329-45.29,49.959-38.074C85.736,94.26,108.104,100.043,108.104,124.857z"/>
			<circle cx="53.002" cy="131.656" r="9.821"/>
			<path style="opacity:0.09;fill:#B2B2B2;" d="M92.884,98.98c0.518,2.617,0.798,5.3,0.798,8.038
				c0,27.291-26.703,49.414-59.641,49.414c-4.33,0-8.548-0.393-12.615-1.117c9.128,8.896,22.197,14.473,36.719,14.473
				c27.59,0,49.958-20.115,49.958-44.93C108.104,112.188,102.264,104.486,92.884,98.98z"/>
		</g>
	</g>
</g>
<g>
	<g style="opacity:0.03;">
		<path d="M207.407,127.086c0,21.82-19.667,39.508-43.929,39.508c-24.263,0-43.93-17.688-43.93-39.508
			c0-21.82,20.511-39.826,43.93-33.479C187.74,100.181,207.407,105.266,207.407,127.086z"/>
		<circle cx="144.039" cy="135.623" r="9.074"/>
		<path style="opacity:0.09;" d="M193.689,103.224c0.462,2.342,0.713,4.743,0.713,7.194c0,24.424-23.897,44.223-53.375,44.223
			c-3.874,0-7.65-0.35-11.29-1c8.17,7.963,19.866,12.953,32.862,12.953c24.692,0,44.71-18.002,44.71-40.211
			C207.31,115.045,202.082,108.151,193.689,103.224z"/>
	</g>
	<g>
		<g>
			<path style="fill:#FFFFFF;" d="M207.407,120.086c0,21.82-19.667,39.508-43.929,39.508c-24.263,0-43.93-17.688-43.93-39.508
				c0-21.82,20.511-39.826,43.93-33.479C187.74,93.181,207.407,98.266,207.407,120.086z"/>
			<circle cx="144.039" cy="128.623" r="9.074"/>
			<path style="opacity:0.09;fill:#B2B2B2;" d="M193.689,96.224c0.462,2.342,0.713,4.743,0.713,7.194
				c0,24.424-23.897,44.223-53.375,44.223c-3.874,0-7.65-0.35-11.29-1c8.17,7.963,19.866,12.953,32.862,12.953
				c24.692,0,44.71-18.002,44.71-40.21C207.31,108.045,202.082,101.151,193.689,96.224z"/>
		</g>
	</g>
</g>
</svg>
