<?xml version="1.0" encoding="iso-8859-1"?>
<!-- Generator: Adobe Illustrator 12.0.0, SVG Export Plug-In . SVG Version: 6.00 Build 51448)  -->
<!DOCTYPE svg PUBLIC "-//W3C//DTD SVG 1.1//EN" "http://www.w3.org/Graphics/SVG/1.1/DTD/svg11.dtd" [
	<!ENTITY ns_svg "http://www.w3.org/2000/svg">
	<!ENTITY ns_xlink "http://www.w3.org/1999/xlink">
]>
<svg  version="1.1" id="&#x56FE;&#x5C42;_1" xmlns="&ns_svg;" xmlns:xlink="&ns_xlink;" width="249" height="249"
	 viewBox="0 0 249 249" style="overflow:visible;enable-background:new 0 0 249 249;" xml:space="preserve">
<circle style="fill:#FFBF00;stroke:#FFFFFF;stroke-linecap:round;stroke-linejoin:round;" cx="124.5" cy="124.5" r="124"/>
<g>
	<g style="opacity:0.04;">
		<path d="M121.054,92.938c0,26.046-19.674,47.161-43.943,47.161c-24.269,0-43.943-21.115-43.943-47.161
			c0-26.045,32.942-47.159,57.211-47.159C114.647,45.779,121.054,66.893,121.054,92.938z"/>
	</g>
	<g>
		<path style="fill:#FFFFFF;" d="M118.054,85.938c0,26.046-19.674,47.161-43.943,47.161c-24.269,0-43.943-21.115-43.943-47.161
			c0-26.045,32.942-47.159,57.211-47.159C111.647,38.779,118.054,59.893,118.054,85.938z"/>
	</g>
</g>
<g>
	<g style="opacity:0.04;">
		<path d="M220.388,92.938c0,26.046-19.673,47.161-43.942,47.161c-24.271,0-43.943-21.114-43.943-47.161
			c0-26.045,3.993-47.159,28.264-47.159C185.034,45.779,220.388,66.893,220.388,92.938z"/>
	</g>
	<g>
		<path style="fill:#FFFFFF;" d="M217.388,85.938c0,26.046-19.673,47.161-43.942,47.161c-24.271,0-43.943-21.114-43.943-47.161
			c0-26.045,3.993-47.159,28.264-47.159C182.034,38.779,217.388,59.893,217.388,85.938z"/>
	</g>
</g>
<circle cx="174.767" cy="90.383" r="10.293"/>
<circle cx="71.629" cy="90.383" r="10.294"/>
<path style="opacity:0.15;fill:#B2B2B2;" d="M111.59,52.199c0.257,2.065,0.405,4.164,0.405,6.298
	c0,28.349-23.392,51.329-52.248,51.329c-9.78,0-18.928-2.646-26.755-7.24c6.271,17.829,22.311,30.513,41.118,30.513
	c24.27,0,43.943-21.114,43.943-47.161C118.054,72.711,116.395,60.763,111.59,52.199z"/>
<path style="opacity:0.15;fill:#B2B2B2;" d="M211.142,67.089c-3.711,23.787-26.265,42.087-53.548,42.087
	c-8.967,0-17.416-1.988-24.861-5.486c6.535,17.246,22.296,29.409,40.713,29.409c24.27,0,43.942-21.114,43.942-47.161
	C217.388,79.234,215.033,72.862,211.142,67.089z"/>
</svg>
