<?xml version="1.0" encoding="iso-8859-1"?>
<!-- Generator: Adobe Illustrator 12.0.0, SVG Export Plug-In . SVG Version: 6.00 Build 51448)  -->
<!DOCTYPE svg PUBLIC "-//W3C//DTD SVG 1.1//EN" "http://www.w3.org/Graphics/SVG/1.1/DTD/svg11.dtd" [
	<!ENTITY ns_svg "http://www.w3.org/2000/svg">
	<!ENTITY ns_xlink "http://www.w3.org/1999/xlink">
]>
<svg  version="1.1" id="&#x56FE;&#x5C42;_1" xmlns="&ns_svg;" xmlns:xlink="&ns_xlink;" width="248" height="248"
	 viewBox="0 0 248 248" style="overflow:visible;enable-background:new 0 0 248 248;" xml:space="preserve">
<circle style="fill:#FFBF00;" cx="124" cy="124" r="124"/>
<g>
	<g style="opacity:0.03;">
		<ellipse transform="matrix(0.9984 -0.057 0.057 0.9984 -4.2419 4.8142)" cx="82.281" cy="76.775" rx="37.341" ry="39.391"/>
	</g>
	<g>
		
			<ellipse transform="matrix(0.9984 -0.057 0.057 0.9984 -3.8429 4.8028)" style="fill:#FFFFFF;" cx="82.281" cy="69.775" rx="37.341" ry="39.391"/>
	</g>
</g>
<path style="opacity:0.15;fill:#B2B2B2;" d="M112.693,47.115c0.14,0.988,0.251,1.985,0.309,2.999
	c1.213,21.25-16.384,39.538-39.306,40.846c-9.667,0.552-18.73-2.014-26.079-6.749c5.822,15.351,20.435,25.832,36.909,24.891
	c20.59-1.175,36.275-19.736,35.035-41.456C119.124,59.983,116.632,52.956,112.693,47.115z"/>
<g>
	<g style="opacity:0.03;">
		<ellipse transform="matrix(0.9984 -0.057 0.057 0.9984 -3.7899 8.4143)" cx="145.624" cy="70.652" rx="34.968" ry="36.888"/>
	</g>
	<g>
		
			<ellipse transform="matrix(0.9984 -0.057 0.057 0.9984 -3.391 8.4029)" style="fill:#FFFFFF;" cx="145.624" cy="63.652" rx="34.968" ry="36.888"/>
	</g>
</g>
<circle cx="72.581" cy="69.157" r="12.079"/>
<path style="fill:#FF0000;" d="M222.469,135.647c13.363,57.029-39.736,96.539-73.768,104.514
	c-43.707,10.242-99.157-3.832-112.521-60.861c-13.364-57.032,53.52-38.822,88.986-47.133
	C159.198,124.192,209.104,78.616,222.469,135.647z"/>
<path style="opacity:0.26;fill:#BF0000;" d="M140.248,215.78c-37.444,8.774-73.398,2.468-95.68-14.189
	c20.929,38.324,66.811,47.316,104.133,38.57c31.449-7.369,79.176-41.671,75.693-91.84
	C216.393,178.063,183.742,205.589,140.248,215.78z"/>
<g>
	<g style="opacity:0.03;">
		<path d="M34.441,166.811c24.506,3.696,55.459,2.706,88.248-3.884c38.2-7.678,71.169-21.4,92.731-37.026
			c-18.939-29.561-60.933,6.278-90.745,13.264C94.077,146.334,40.101,133.772,34.441,166.811z"/>
	</g>
	<g>
		<path style="fill:#FFFFFF;" d="M34.441,159.811c24.506,3.696,55.459,2.706,88.248-3.884c38.2-7.678,71.169-21.4,92.731-37.026
			c-18.939-29.562-60.933,6.278-90.745,13.263C94.077,139.334,40.101,126.772,34.441,159.811z"/>
	</g>
</g>
<line style="fill:none;stroke:#FFFFFF;stroke-width:11;stroke-linecap:round;stroke-linejoin:round;" x1="174.333" y1="175.335" x2="215" y2="234.001"/>
<line style="fill:none;stroke:#FFFFFF;stroke-width:11;stroke-linecap:round;stroke-linejoin:round;" x1="145.667" y1="194.668" x2="155.667" y2="226.001"/>
<line style="fill:none;stroke:#FFFFFF;stroke-width:11;stroke-linecap:round;stroke-linejoin:round;" x1="90.333" y1="185.335" x2="81.937" y2="240.677"/>
<circle cx="132.801" cy="65.183" r="11.023"/>
<path style="opacity:0.15;fill:#B2B2B2;" d="M170.284,37.666c2.076,3.697,3.345,7.794,3.594,12.152
	c1.033,18.101-15.789,33.782-37.575,35.025c-7.803,0.445-15.177-1.029-21.485-3.927c6.259,12.301,18.86,20.367,32.91,19.564
	c19.281-1.1,33.969-18.48,32.808-38.82C179.999,52.25,176.16,43.861,170.284,37.666z"/>
<line style="fill:none;stroke:#000000;stroke-width:9;stroke-linecap:round;stroke-linejoin:round;" x1="96.333" y1="23.409" x2="43.667" y2="15.125"/>
<line style="fill:none;stroke:#000000;stroke-width:9;stroke-linecap:round;stroke-linejoin:round;" x1="118.517" y1="23.292" x2="169.545" y2="4.692"/>
</svg>
