<?xml version="1.0" encoding="iso-8859-1"?>
<!-- Generator: Adobe Illustrator 12.0.0, SVG Export Plug-In . SVG Version: 6.00 Build 51448)  -->
<!DOCTYPE svg PUBLIC "-//W3C//DTD SVG 1.1//EN" "http://www.w3.org/Graphics/SVG/1.1/DTD/svg11.dtd" [
	<!ENTITY ns_svg "http://www.w3.org/2000/svg">
	<!ENTITY ns_xlink "http://www.w3.org/1999/xlink">
]>
<svg  version="1.1" id="&#x56FE;&#x5C42;_1" xmlns="&ns_svg;" xmlns:xlink="&ns_xlink;" width="248" height="248"
	 viewBox="0 0 248 248" style="overflow:visible;enable-background:new 0 0 248 248;" xml:space="preserve">
<circle style="fill:#FFBF00;" cx="124" cy="124" r="124"/>
<path style="fill:none;stroke:#000000;stroke-width:13;stroke-linecap:round;stroke-linejoin:round;" d="M196.202,92.886
	c0,15.648-12.685,28.333-28.333,28.333s-28.333-12.685-28.333-28.333"/>
<path style="fill:none;stroke:#BF0000;stroke-width:13;stroke-linecap:round;stroke-linejoin:round;" d="M105.499,210.611
	c0,0,17.182,14.318,36-0.817"/>
<g>
	
		<line style="fill:none;stroke:#000000;stroke-width:6;stroke-linecap:round;stroke-linejoin:round;" x1="59.667" y1="114.668" x2="46" y2="128.335"/>
	
		<line style="fill:none;stroke:#000000;stroke-width:6;stroke-linecap:round;stroke-linejoin:round;" x1="73.667" y1="124.668" x2="73.667" y2="142.668"/>
	
		<line style="fill:none;stroke:#000000;stroke-width:6;stroke-linecap:round;stroke-linejoin:round;" x1="89.667" y1="117.668" x2="102.667" y2="130.668"/>
</g>
<path style="fill:none;stroke:#000000;stroke-width:13;stroke-linecap:round;stroke-linejoin:round;" d="M103.667,92.886
	c0,15.648-12.685,28.333-28.333,28.333C59.685,121.219,47,108.534,47,92.886"/>
<g>
	
		<line style="fill:none;stroke:#000000;stroke-width:6;stroke-linecap:round;stroke-linejoin:round;" x1="151.334" y1="114.668" x2="137.668" y2="128.336"/>
	
		<line style="fill:none;stroke:#000000;stroke-width:6;stroke-linecap:round;stroke-linejoin:round;" x1="165.334" y1="124.667" x2="165.334" y2="142.668"/>
	
		<line style="fill:none;stroke:#000000;stroke-width:6;stroke-linecap:round;stroke-linejoin:round;" x1="181.334" y1="117.668" x2="194.334" y2="130.668"/>
</g>
<g>
	
		<line style="fill:none;stroke:#FF0000;stroke-width:5;stroke-linecap:round;stroke-linejoin:round;" x1="47.279" y1="166.763" x2="35.142" y2="178.624"/>
	
		<line style="fill:none;stroke:#FF0000;stroke-width:5;stroke-linecap:round;stroke-linejoin:round;" x1="61.296" y1="165.425" x2="47.641" y2="178.769"/>
	
		<line style="fill:none;stroke:#FF0000;stroke-width:5;stroke-linecap:round;stroke-linejoin:round;" x1="77.341" y1="161.61" x2="59.64" y2="178.907"/>
</g>
<g>
	
		<line style="fill:none;stroke:#FF0000;stroke-width:5;stroke-linecap:round;stroke-linejoin:round;" x1="189.756" y1="158.227" x2="177.618" y2="170.088"/>
	
		<line style="fill:none;stroke:#FF0000;stroke-width:5;stroke-linecap:round;stroke-linejoin:round;" x1="203.772" y1="156.889" x2="190.117" y2="170.232"/>
	
		<line style="fill:none;stroke:#FF0000;stroke-width:5;stroke-linecap:round;stroke-linejoin:round;" x1="219.817" y1="153.074" x2="202.117" y2="170.371"/>
</g>
</svg>
