<?xml version="1.0" encoding="iso-8859-1"?>
<!-- Generator: Adobe Illustrator 12.0.0, SVG Export Plug-In . SVG Version: 6.00 Build 51448)  -->
<!DOCTYPE svg PUBLIC "-//W3C//DTD SVG 1.1//EN" "http://www.w3.org/Graphics/SVG/1.1/DTD/svg11.dtd" [
	<!ENTITY ns_svg "http://www.w3.org/2000/svg">
	<!ENTITY ns_xlink "http://www.w3.org/1999/xlink">
]>
<svg  version="1.1" id="&#x56FE;&#x5C42;_1" xmlns="&ns_svg;" xmlns:xlink="&ns_xlink;" width="248" height="248"
	 viewBox="0 0 248 248" style="overflow:visible;enable-background:new 0 0 248 248;" xml:space="preserve">
<circle style="fill:#FFBF00;" cx="124" cy="124" r="124"/>
<g>
	<g style="opacity:0.03;">
		<ellipse cx="79.781" cy="101.573" rx="49.115" ry="48.808"/>
		<circle cx="80.114" cy="95.243" r="11.226"/>
		<path style="opacity:0.68;" d="M99.039,124.721c-10.815,0-22.019,11.588-38.629,3.862c-5.384-2.505-14.328-2.69-22.703-0.44
			c8.674,13.813,24.097,23.01,41.689,23.01c16.087,0,30.368-7.688,39.326-19.566C112.719,127.682,105.732,124.721,99.039,124.721z"
			/>
	</g>
	<g>
		<g>
			<ellipse style="fill:#FFFFFF;" cx="79.781" cy="94.573" rx="49.115" ry="48.808"/>
			<circle cx="80.114" cy="88.243" r="11.226"/>
			<path style="opacity:0.68;fill:#00B9E6;" d="M99.039,117.721c-10.815,0-22.019,11.588-38.629,3.862
				c-5.384-2.504-14.328-2.69-22.703-0.44c8.674,13.813,24.097,23.009,41.689,23.009c16.087,0,30.368-7.688,39.326-19.567
				C112.719,120.682,105.732,117.721,99.039,117.721z"/>
		</g>
	</g>
</g>
<path style="fill:#BF0000;" d="M151.384,210.091c0,6.996-10.291,1-22.989,1c-12.695,0-22.988,5.996-22.988-1
	s10.292-12.667,22.988-12.667C141.093,197.424,151.384,203.095,151.384,210.091z"/>
<g>
	<g style="opacity:0.03;">
		<ellipse cx="165.437" cy="99.738" rx="49.115" ry="48.807"/>
		<circle cx="165.77" cy="93.408" r="11.225"/>
		<path style="opacity:0.68;" d="M184.695,122.886c-10.817,0-22.02,11.589-38.63,3.862c-5.384-2.504-14.327-2.69-22.704-0.439
			c8.676,13.813,24.099,23.009,41.689,23.009c16.089,0,30.368-7.688,39.327-19.567C198.375,125.848,191.388,122.886,184.695,122.886
			z"/>
	</g>
	<g>
		<g>
			<ellipse style="fill:#FFFFFF;" cx="165.437" cy="92.738" rx="49.115" ry="48.807"/>
			<circle cx="165.77" cy="86.408" r="11.225"/>
			<path style="opacity:0.68;fill:#00B9E6;" d="M184.695,115.886c-10.817,0-22.02,11.589-38.63,3.862
				c-5.384-2.504-14.327-2.69-22.704-0.44c8.676,13.813,24.099,23.009,41.689,23.009c16.089,0,30.368-7.688,39.327-19.567
				C198.375,118.847,191.388,115.886,184.695,115.886z"/>
		</g>
	</g>
</g>
</svg>
